<mxfile host="app.diagrams.net" agent="Mozilla/5.0 (Windows NT 10.0; Win64; x64) AppleWebKit/537.36 (KHTML, like Gecko) Chrome/129.0.0.0 Safari/537.36" version="24.8.0">
  <diagram id="90Gpye6yKcSmeQxAMPvp" name="Halaman-1">
    <mxGraphModel dx="764" dy="686" grid="1" gridSize="10" guides="1" tooltips="1" connect="1" arrows="1" fold="1" page="1" pageScale="1" pageWidth="827" pageHeight="1169" math="0" shadow="0">
      <root>
        <mxCell id="0" />
        <mxCell id="1" parent="0" />
        <mxCell id="pvfYnb17vEtcrrkuYDLX-1" value="FLOWCHART PEMBELIAN TIKET BIOSKOP" style="text;html=1;align=center;verticalAlign=middle;resizable=0;points=[];autosize=1;strokeColor=none;fillColor=none;fontSize=16;labelBackgroundColor=none;fontStyle=1;fontColor=#1D3557;" parent="1" vertex="1">
          <mxGeometry x="2505" y="50" width="350" height="30" as="geometry" />
        </mxCell>
        <mxCell id="pvfYnb17vEtcrrkuYDLX-2" value="" style="edgeStyle=orthogonalEdgeStyle;rounded=0;orthogonalLoop=1;jettySize=auto;html=1;labelBackgroundColor=none;strokeColor=#457B9D;fontColor=default;align=center;" parent="1" source="pvfYnb17vEtcrrkuYDLX-3" target="pvfYnb17vEtcrrkuYDLX-5" edge="1">
          <mxGeometry relative="1" as="geometry" />
        </mxCell>
        <mxCell id="pvfYnb17vEtcrrkuYDLX-3" value="&lt;font color=&quot;#000000&quot;&gt;START&lt;/font&gt;" style="strokeWidth=2;html=1;shape=mxgraph.flowchart.terminator;whiteSpace=wrap;align=center;fillColor=#A8DADC;strokeColor=#457B9D;fontStyle=1;labelBackgroundColor=none;fontColor=#1D3557;" parent="1" vertex="1">
          <mxGeometry x="2650" y="90" width="80" height="30" as="geometry" />
        </mxCell>
        <mxCell id="pvfYnb17vEtcrrkuYDLX-4" value="" style="edgeStyle=orthogonalEdgeStyle;rounded=0;orthogonalLoop=1;jettySize=auto;html=1;labelBackgroundColor=none;strokeColor=#457B9D;fontColor=default;align=center;" parent="1" source="pvfYnb17vEtcrrkuYDLX-5" target="pvfYnb17vEtcrrkuYDLX-8" edge="1">
          <mxGeometry relative="1" as="geometry" />
        </mxCell>
        <mxCell id="pvfYnb17vEtcrrkuYDLX-5" value="&lt;font style=&quot;font-size: 10px;&quot;&gt;Output Pilihan:&lt;/font&gt;&lt;div&gt;&lt;font style=&quot;font-size: 10px;&quot;&gt;1. Register&lt;/font&gt;&lt;/div&gt;&lt;div&gt;&lt;font style=&quot;font-size: 10px;&quot;&gt;2. Login&lt;/font&gt;&lt;/div&gt;&lt;div&gt;&lt;font style=&quot;font-size: 10px;&quot;&gt;3. Exit&lt;/font&gt;&lt;/div&gt;" style="shape=parallelogram;html=1;strokeWidth=2;perimeter=parallelogramPerimeter;whiteSpace=wrap;rounded=1;arcSize=12;size=0.23;align=center;fillColor=#A8DADC;strokeColor=#457B9D;labelBackgroundColor=none;fontColor=#1D3557;" parent="1" vertex="1">
          <mxGeometry x="2623.19" y="150" width="133.63" height="60" as="geometry" />
        </mxCell>
        <mxCell id="pvfYnb17vEtcrrkuYDLX-6" value="" style="edgeStyle=orthogonalEdgeStyle;rounded=0;orthogonalLoop=1;jettySize=auto;html=1;strokeColor=#457B9D;fontColor=#1D3557;fillColor=#A8DADC;align=center;" parent="1" source="pvfYnb17vEtcrrkuYDLX-8" target="pvfYnb17vEtcrrkuYDLX-11" edge="1">
          <mxGeometry relative="1" as="geometry" />
        </mxCell>
        <mxCell id="pvfYnb17vEtcrrkuYDLX-7" value="" style="edgeStyle=orthogonalEdgeStyle;rounded=0;orthogonalLoop=1;jettySize=auto;html=1;strokeColor=#457B9D;fontColor=#1D3557;fillColor=#A8DADC;align=center;" parent="1" source="pvfYnb17vEtcrrkuYDLX-8" target="pvfYnb17vEtcrrkuYDLX-13" edge="1">
          <mxGeometry relative="1" as="geometry" />
        </mxCell>
        <mxCell id="pvfYnb17vEtcrrkuYDLX-8" value="if = 1" style="strokeWidth=2;html=1;shape=mxgraph.flowchart.decision;whiteSpace=wrap;labelBackgroundColor=none;fillColor=#A8DADC;strokeColor=#457B9D;fontColor=#1D3557;align=center;" parent="1" vertex="1">
          <mxGeometry x="2636.8199999999997" y="240" width="106.37" height="60" as="geometry" />
        </mxCell>
        <mxCell id="pvfYnb17vEtcrrkuYDLX-9" value="" style="edgeStyle=orthogonalEdgeStyle;rounded=0;orthogonalLoop=1;jettySize=auto;html=1;strokeColor=#457B9D;fontColor=#1D3557;fillColor=#A8DADC;align=center;" parent="1" source="pvfYnb17vEtcrrkuYDLX-11" edge="1">
          <mxGeometry relative="1" as="geometry">
            <mxPoint x="1820" y="500" as="targetPoint" />
          </mxGeometry>
        </mxCell>
        <mxCell id="pvfYnb17vEtcrrkuYDLX-10" value="" style="edgeStyle=orthogonalEdgeStyle;rounded=0;orthogonalLoop=1;jettySize=auto;html=1;strokeColor=#457B9D;fontColor=#1D3557;fillColor=#A8DADC;" parent="1" source="pvfYnb17vEtcrrkuYDLX-11" target="pvfYnb17vEtcrrkuYDLX-30" edge="1">
          <mxGeometry relative="1" as="geometry" />
        </mxCell>
        <mxCell id="pvfYnb17vEtcrrkuYDLX-11" value="if = 2" style="strokeWidth=2;html=1;shape=mxgraph.flowchart.decision;whiteSpace=wrap;labelBackgroundColor=none;fillColor=#A8DADC;strokeColor=#457B9D;fontColor=#1D3557;align=center;" parent="1" vertex="1">
          <mxGeometry x="2280" y="320" width="106.37" height="60" as="geometry" />
        </mxCell>
        <mxCell id="pvfYnb17vEtcrrkuYDLX-12" value="" style="edgeStyle=orthogonalEdgeStyle;rounded=0;orthogonalLoop=1;jettySize=auto;html=1;strokeColor=#457B9D;fontColor=#1D3557;fillColor=#A8DADC;" parent="1" source="pvfYnb17vEtcrrkuYDLX-13" target="pvfYnb17vEtcrrkuYDLX-16" edge="1">
          <mxGeometry relative="1" as="geometry" />
        </mxCell>
        <mxCell id="pvfYnb17vEtcrrkuYDLX-13" value="&lt;font style=&quot;font-size: 11px;&quot;&gt;Input = new_user&lt;/font&gt;&lt;div style=&quot;font-size: 11px;&quot;&gt;&lt;font style=&quot;font-size: 11px;&quot;&gt;Input = new_password&lt;/font&gt;&lt;/div&gt;&lt;div style=&quot;font-size: 11px;&quot;&gt;&lt;font style=&quot;font-size: 11px;&quot;&gt;Input = role&amp;nbsp;&lt;/font&gt;&lt;/div&gt;" style="shape=parallelogram;perimeter=parallelogramPerimeter;whiteSpace=wrap;html=1;fixedSize=1;fillColor=#A8DADC;strokeColor=#457B9D;fontColor=#1D3557;strokeWidth=2;labelBackgroundColor=none;align=center;" parent="1" vertex="1">
          <mxGeometry x="2833.71" y="270" width="143.63" height="60" as="geometry" />
        </mxCell>
        <mxCell id="pvfYnb17vEtcrrkuYDLX-14" value="" style="edgeStyle=orthogonalEdgeStyle;rounded=0;orthogonalLoop=1;jettySize=auto;html=1;strokeColor=#457B9D;fontColor=#1D3557;fillColor=#A8DADC;" parent="1" source="pvfYnb17vEtcrrkuYDLX-16" target="pvfYnb17vEtcrrkuYDLX-19" edge="1">
          <mxGeometry relative="1" as="geometry" />
        </mxCell>
        <mxCell id="pvfYnb17vEtcrrkuYDLX-15" value="" style="edgeStyle=orthogonalEdgeStyle;rounded=0;orthogonalLoop=1;jettySize=auto;html=1;strokeColor=#457B9D;fontColor=#1D3557;fillColor=#A8DADC;" parent="1" source="pvfYnb17vEtcrrkuYDLX-16" target="pvfYnb17vEtcrrkuYDLX-24" edge="1">
          <mxGeometry relative="1" as="geometry" />
        </mxCell>
        <mxCell id="pvfYnb17vEtcrrkuYDLX-16" value="if user == new_username for user in akun" style="rhombus;whiteSpace=wrap;html=1;fillColor=#A8DADC;strokeColor=#457B9D;fontColor=#1D3557;strokeWidth=2;labelBackgroundColor=none;" parent="1" vertex="1">
          <mxGeometry x="2761.05" y="410" width="288.95" height="100" as="geometry" />
        </mxCell>
        <mxCell id="pvfYnb17vEtcrrkuYDLX-17" value="true" style="text;html=1;align=center;verticalAlign=middle;resizable=0;points=[];autosize=1;strokeColor=none;fillColor=none;fontColor=#1D3557;" parent="1" vertex="1">
          <mxGeometry x="2760" y="238" width="40" height="30" as="geometry" />
        </mxCell>
        <mxCell id="pvfYnb17vEtcrrkuYDLX-18" value="false" style="text;html=1;align=center;verticalAlign=middle;resizable=0;points=[];autosize=1;strokeColor=none;fillColor=none;fontColor=#1D3557;" parent="1" vertex="1">
          <mxGeometry x="2565" y="240" width="50" height="30" as="geometry" />
        </mxCell>
        <mxCell id="pvfYnb17vEtcrrkuYDLX-19" value="Output &quot;Username sudah digunakan&quot;" style="shape=parallelogram;perimeter=parallelogramPerimeter;whiteSpace=wrap;html=1;fixedSize=1;fillColor=#A8DADC;strokeColor=#457B9D;fontColor=#1D3557;strokeWidth=2;labelBackgroundColor=none;" parent="1" vertex="1">
          <mxGeometry x="2580" y="430" width="130" height="60" as="geometry" />
        </mxCell>
        <mxCell id="pvfYnb17vEtcrrkuYDLX-20" value="" style="endArrow=classic;html=1;rounded=0;strokeColor=#457B9D;fontColor=#1D3557;fillColor=#A8DADC;exitX=0.555;exitY=0.06;exitDx=0;exitDy=0;exitPerimeter=0;entryX=0.043;entryY=0.616;entryDx=0;entryDy=0;entryPerimeter=0;" parent="1" source="pvfYnb17vEtcrrkuYDLX-19" target="pvfYnb17vEtcrrkuYDLX-13" edge="1">
          <mxGeometry width="50" height="50" relative="1" as="geometry">
            <mxPoint x="2850" y="560" as="sourcePoint" />
            <mxPoint x="2710" y="320" as="targetPoint" />
            <Array as="points">
              <mxPoint x="2652" y="310" />
            </Array>
          </mxGeometry>
        </mxCell>
        <mxCell id="pvfYnb17vEtcrrkuYDLX-21" style="edgeStyle=orthogonalEdgeStyle;rounded=0;orthogonalLoop=1;jettySize=auto;html=1;" parent="1" source="pvfYnb17vEtcrrkuYDLX-131" edge="1">
          <mxGeometry relative="1" as="geometry">
            <mxPoint x="4381" y="550" as="targetPoint" />
          </mxGeometry>
        </mxCell>
        <mxCell id="pvfYnb17vEtcrrkuYDLX-22" style="edgeStyle=orthogonalEdgeStyle;rounded=0;orthogonalLoop=1;jettySize=auto;html=1;exitX=0.5;exitY=0;exitDx=0;exitDy=0;entryX=1;entryY=0.5;entryDx=0;entryDy=0;" parent="1" source="pvfYnb17vEtcrrkuYDLX-24" target="pvfYnb17vEtcrrkuYDLX-5" edge="1">
          <mxGeometry relative="1" as="geometry">
            <Array as="points">
              <mxPoint x="3245" y="180" />
            </Array>
          </mxGeometry>
        </mxCell>
        <mxCell id="pvfYnb17vEtcrrkuYDLX-23" style="edgeStyle=orthogonalEdgeStyle;rounded=0;orthogonalLoop=1;jettySize=auto;html=1;exitX=1;exitY=0.25;exitDx=0;exitDy=0;entryX=0;entryY=0.5;entryDx=0;entryDy=0;" parent="1" source="pvfYnb17vEtcrrkuYDLX-24" target="pvfYnb17vEtcrrkuYDLX-119" edge="1">
          <mxGeometry relative="1" as="geometry" />
        </mxCell>
        <mxCell id="pvfYnb17vEtcrrkuYDLX-24" value="Output &quot;Login Berhasil&lt;div&gt;&lt;span style=&quot;background-color: initial;&quot;&gt;untuk{username}&lt;/span&gt;&lt;/div&gt;&lt;div&gt;&lt;span style=&quot;background-color: initial;&quot;&gt;sebagai{role}.&quot;&lt;/span&gt;&lt;/div&gt;" style="shape=parallelogram;perimeter=parallelogramPerimeter;whiteSpace=wrap;html=1;fixedSize=1;fillColor=#A8DADC;strokeColor=#457B9D;fontColor=#1D3557;strokeWidth=2;labelBackgroundColor=none;" parent="1" vertex="1">
          <mxGeometry x="3170.01" y="430" width="149.99" height="60" as="geometry" />
        </mxCell>
        <mxCell id="pvfYnb17vEtcrrkuYDLX-25" value="False" style="text;html=1;align=center;verticalAlign=middle;resizable=0;points=[];autosize=1;strokeColor=none;fillColor=none;fontColor=#1D3557;" parent="1" vertex="1">
          <mxGeometry x="2711.05" y="430" width="50" height="30" as="geometry" />
        </mxCell>
        <mxCell id="pvfYnb17vEtcrrkuYDLX-26" value="True" style="text;html=1;align=center;verticalAlign=middle;resizable=0;points=[];autosize=1;strokeColor=none;fillColor=none;fontColor=#1D3557;" parent="1" vertex="1">
          <mxGeometry x="3083" y="428" width="50" height="30" as="geometry" />
        </mxCell>
        <mxCell id="pvfYnb17vEtcrrkuYDLX-27" value="" style="edgeStyle=orthogonalEdgeStyle;rounded=0;orthogonalLoop=1;jettySize=auto;html=1;strokeColor=#457B9D;fontColor=#1D3557;fillColor=#A8DADC;" parent="1" source="pvfYnb17vEtcrrkuYDLX-30" target="pvfYnb17vEtcrrkuYDLX-35" edge="1">
          <mxGeometry relative="1" as="geometry" />
        </mxCell>
        <mxCell id="pvfYnb17vEtcrrkuYDLX-28" value="" style="edgeLabel;html=1;align=center;verticalAlign=middle;resizable=0;points=[];strokeColor=#457B9D;fontColor=#1D3557;fillColor=#A8DADC;" parent="pvfYnb17vEtcrrkuYDLX-27" vertex="1" connectable="0">
          <mxGeometry x="-0.0011" y="-1" relative="1" as="geometry">
            <mxPoint as="offset" />
          </mxGeometry>
        </mxCell>
        <mxCell id="pvfYnb17vEtcrrkuYDLX-29" value="" style="edgeLabel;html=1;align=center;verticalAlign=middle;resizable=0;points=[];strokeColor=#457B9D;fontColor=#1D3557;fillColor=#A8DADC;" parent="pvfYnb17vEtcrrkuYDLX-27" vertex="1" connectable="0">
          <mxGeometry x="-0.0381" relative="1" as="geometry">
            <mxPoint as="offset" />
          </mxGeometry>
        </mxCell>
        <mxCell id="pvfYnb17vEtcrrkuYDLX-30" value="Input = Username&lt;div&gt;Input Password&lt;/div&gt;" style="shape=parallelogram;perimeter=parallelogramPerimeter;whiteSpace=wrap;html=1;fixedSize=1;fillColor=#A8DADC;strokeColor=#457B9D;fontColor=#1D3557;strokeWidth=2;labelBackgroundColor=none;" parent="1" vertex="1">
          <mxGeometry x="2410" y="550" width="130" height="60" as="geometry" />
        </mxCell>
        <mxCell id="pvfYnb17vEtcrrkuYDLX-31" value="True" style="text;html=1;align=center;verticalAlign=middle;resizable=0;points=[];autosize=1;strokeColor=none;fillColor=none;fontColor=#1D3557;" parent="1" vertex="1">
          <mxGeometry x="2415" y="318" width="50" height="30" as="geometry" />
        </mxCell>
        <mxCell id="pvfYnb17vEtcrrkuYDLX-32" value="False" style="text;html=1;align=center;verticalAlign=middle;resizable=0;points=[];autosize=1;strokeColor=none;fillColor=none;fontColor=#1D3557;" parent="1" vertex="1">
          <mxGeometry x="2195" y="318" width="50" height="30" as="geometry" />
        </mxCell>
        <mxCell id="pvfYnb17vEtcrrkuYDLX-33" value="" style="edgeStyle=orthogonalEdgeStyle;rounded=0;orthogonalLoop=1;jettySize=auto;html=1;strokeColor=#457B9D;fontColor=#1D3557;fillColor=#A8DADC;" parent="1" source="pvfYnb17vEtcrrkuYDLX-35" target="pvfYnb17vEtcrrkuYDLX-37" edge="1">
          <mxGeometry relative="1" as="geometry" />
        </mxCell>
        <mxCell id="pvfYnb17vEtcrrkuYDLX-34" value="" style="edgeStyle=orthogonalEdgeStyle;rounded=0;orthogonalLoop=1;jettySize=auto;html=1;strokeColor=#457B9D;fontColor=#1D3557;fillColor=#A8DADC;" parent="1" source="pvfYnb17vEtcrrkuYDLX-35" target="pvfYnb17vEtcrrkuYDLX-39" edge="1">
          <mxGeometry relative="1" as="geometry" />
        </mxCell>
        <mxCell id="pvfYnb17vEtcrrkuYDLX-35" value="if users[0]== Username and&lt;div&gt;&amp;nbsp;users[1]== Password&lt;/div&gt;" style="rhombus;whiteSpace=wrap;html=1;fillColor=#A8DADC;strokeColor=#457B9D;fontColor=#1D3557;strokeWidth=2;labelBackgroundColor=none;" parent="1" vertex="1">
          <mxGeometry x="2376.25" y="730" width="197.5" height="110" as="geometry" />
        </mxCell>
        <mxCell id="pvfYnb17vEtcrrkuYDLX-36" value="" style="edgeStyle=orthogonalEdgeStyle;rounded=0;orthogonalLoop=1;jettySize=auto;html=1;strokeColor=#457B9D;fontColor=#1D3557;fillColor=#A8DADC;" parent="1" source="pvfYnb17vEtcrrkuYDLX-37" target="pvfYnb17vEtcrrkuYDLX-42" edge="1">
          <mxGeometry relative="1" as="geometry" />
        </mxCell>
        <mxCell id="pvfYnb17vEtcrrkuYDLX-37" value="status = users[2]" style="whiteSpace=wrap;html=1;fillColor=#A8DADC;strokeColor=#457B9D;fontColor=#1D3557;strokeWidth=2;labelBackgroundColor=none;" parent="1" vertex="1">
          <mxGeometry x="2650" y="755" width="120" height="60" as="geometry" />
        </mxCell>
        <mxCell id="pvfYnb17vEtcrrkuYDLX-38" value="True" style="text;html=1;align=center;verticalAlign=middle;resizable=0;points=[];autosize=1;strokeColor=none;fillColor=none;fontColor=#1D3557;" parent="1" vertex="1">
          <mxGeometry x="2580" y="755" width="50" height="30" as="geometry" />
        </mxCell>
        <mxCell id="pvfYnb17vEtcrrkuYDLX-39" value="Output &quot;Login gagal! Username atau Password salah&quot;" style="shape=parallelogram;perimeter=parallelogramPerimeter;whiteSpace=wrap;html=1;fixedSize=1;fillColor=#A8DADC;strokeColor=#457B9D;fontColor=#1D3557;strokeWidth=2;labelBackgroundColor=none;" parent="1" vertex="1">
          <mxGeometry x="2090" y="747.5" width="167.5" height="75" as="geometry" />
        </mxCell>
        <mxCell id="pvfYnb17vEtcrrkuYDLX-40" value="" style="endArrow=classic;html=1;rounded=0;strokeColor=#457B9D;fontColor=#1D3557;fillColor=#A8DADC;exitX=0.537;exitY=-0.037;exitDx=0;exitDy=0;exitPerimeter=0;entryX=0;entryY=0.5;entryDx=0;entryDy=0;" parent="1" source="pvfYnb17vEtcrrkuYDLX-39" target="pvfYnb17vEtcrrkuYDLX-30" edge="1">
          <mxGeometry width="50" height="50" relative="1" as="geometry">
            <mxPoint x="2370" y="670" as="sourcePoint" />
            <mxPoint x="2420" y="620" as="targetPoint" />
            <Array as="points">
              <mxPoint x="2180" y="580" />
            </Array>
          </mxGeometry>
        </mxCell>
        <mxCell id="pvfYnb17vEtcrrkuYDLX-41" value="" style="edgeStyle=orthogonalEdgeStyle;rounded=0;orthogonalLoop=1;jettySize=auto;html=1;strokeColor=#457B9D;fontColor=#1D3557;fillColor=#A8DADC;" parent="1" source="pvfYnb17vEtcrrkuYDLX-42" target="pvfYnb17vEtcrrkuYDLX-44" edge="1">
          <mxGeometry relative="1" as="geometry" />
        </mxCell>
        <mxCell id="pvfYnb17vEtcrrkuYDLX-42" value="Output &quot;Login Berhasil, anda masuk sebagai {status}&quot;" style="shape=parallelogram;perimeter=parallelogramPerimeter;whiteSpace=wrap;html=1;fixedSize=1;fillColor=#A8DADC;strokeColor=#457B9D;fontColor=#1D3557;strokeWidth=2;labelBackgroundColor=none;" parent="1" vertex="1">
          <mxGeometry x="2615" y="870" width="190" height="55" as="geometry" />
        </mxCell>
        <mxCell id="pvfYnb17vEtcrrkuYDLX-43" value="" style="edgeStyle=orthogonalEdgeStyle;rounded=0;orthogonalLoop=1;jettySize=auto;html=1;strokeColor=#457B9D;fontColor=#1D3557;fillColor=#A8DADC;" parent="1" source="pvfYnb17vEtcrrkuYDLX-44" target="pvfYnb17vEtcrrkuYDLX-46" edge="1">
          <mxGeometry relative="1" as="geometry" />
        </mxCell>
        <mxCell id="pvfYnb17vEtcrrkuYDLX-44" value="if status == &quot;admin&quot;" style="rhombus;whiteSpace=wrap;html=1;fillColor=#A8DADC;strokeColor=#457B9D;fontColor=#1D3557;strokeWidth=2;labelBackgroundColor=none;" parent="1" vertex="1">
          <mxGeometry x="2620" y="980" width="180" height="67.5" as="geometry" />
        </mxCell>
        <mxCell id="pvfYnb17vEtcrrkuYDLX-45" value="" style="edgeStyle=orthogonalEdgeStyle;rounded=0;orthogonalLoop=1;jettySize=auto;html=1;strokeColor=#457B9D;fontColor=#1D3557;fillColor=#A8DADC;" parent="1" source="pvfYnb17vEtcrrkuYDLX-46" target="pvfYnb17vEtcrrkuYDLX-48" edge="1">
          <mxGeometry relative="1" as="geometry" />
        </mxCell>
        <mxCell id="pvfYnb17vEtcrrkuYDLX-46" value="&lt;font face=&quot;Verdana&quot;&gt;Output =&amp;nbsp;&lt;/font&gt;&lt;div&gt;&lt;font face=&quot;Gwa8SxlCsdu1uKtJ1fb-&quot;&gt;&quot; Sistem Admin&lt;/font&gt;&lt;/div&gt;&lt;div&gt;&lt;font face=&quot;Gwa8SxlCsdu1uKtJ1fb-&quot;&gt;1. Tambah Film&lt;/font&gt;&lt;/div&gt;&lt;div&gt;&lt;font face=&quot;Gwa8SxlCsdu1uKtJ1fb-&quot;&gt;2. Lihat Daftar Film&lt;/font&gt;&lt;/div&gt;&lt;div&gt;&lt;font face=&quot;Gwa8SxlCsdu1uKtJ1fb-&quot;&gt;3. Update Film&lt;/font&gt;&lt;/div&gt;&lt;div&gt;&lt;span style=&quot;background-color: initial;&quot;&gt;&lt;font face=&quot;Gwa8SxlCsdu1uKtJ1fb-&quot;&gt;4. Hapus Film&lt;/font&gt;&lt;/span&gt;&lt;/div&gt;&lt;div&gt;&lt;font face=&quot;Gwa8SxlCsdu1uKtJ1fb-&quot;&gt;5. Log out&quot;&lt;/font&gt;&lt;/div&gt;" style="shape=parallelogram;perimeter=parallelogramPerimeter;whiteSpace=wrap;html=1;fixedSize=1;fillColor=#A8DADC;strokeColor=#457B9D;fontColor=#1D3557;strokeWidth=2;labelBackgroundColor=none;align=center;" parent="1" vertex="1">
          <mxGeometry x="2880" y="959.06" width="180" height="109.37" as="geometry" />
        </mxCell>
        <mxCell id="pvfYnb17vEtcrrkuYDLX-47" value="" style="edgeStyle=orthogonalEdgeStyle;rounded=0;orthogonalLoop=1;jettySize=auto;html=1;strokeColor=#457B9D;fontColor=#1D3557;fillColor=#A8DADC;" parent="1" source="pvfYnb17vEtcrrkuYDLX-48" target="pvfYnb17vEtcrrkuYDLX-51" edge="1">
          <mxGeometry relative="1" as="geometry" />
        </mxCell>
        <mxCell id="pvfYnb17vEtcrrkuYDLX-48" value="Input = 1/2/3/4/5" style="shape=parallelogram;perimeter=parallelogramPerimeter;whiteSpace=wrap;html=1;fixedSize=1;fillColor=#A8DADC;strokeColor=#457B9D;fontColor=#1D3557;strokeWidth=2;labelBackgroundColor=none;" parent="1" vertex="1">
          <mxGeometry x="2910" y="1100.0049999999999" width="120" height="60" as="geometry" />
        </mxCell>
        <mxCell id="pvfYnb17vEtcrrkuYDLX-49" value="" style="edgeStyle=orthogonalEdgeStyle;rounded=0;orthogonalLoop=1;jettySize=auto;html=1;strokeColor=#457B9D;fontColor=#1D3557;fillColor=#A8DADC;exitX=0.915;exitY=0.473;exitDx=0;exitDy=0;exitPerimeter=0;" parent="1" edge="1">
          <mxGeometry relative="1" as="geometry">
            <mxPoint x="3036.4" y="1228.8400000000001" as="sourcePoint" />
            <Array as="points">
              <mxPoint x="3036" y="1231" />
              <mxPoint x="3125" y="1231" />
              <mxPoint x="3125" y="1280" />
            </Array>
            <mxPoint x="3125" y="1290" as="targetPoint" />
          </mxGeometry>
        </mxCell>
        <mxCell id="pvfYnb17vEtcrrkuYDLX-50" value="" style="edgeStyle=orthogonalEdgeStyle;rounded=0;orthogonalLoop=1;jettySize=auto;html=1;strokeColor=#457B9D;fontColor=#1D3557;fillColor=#A8DADC;" parent="1" source="pvfYnb17vEtcrrkuYDLX-51" target="pvfYnb17vEtcrrkuYDLX-53" edge="1">
          <mxGeometry relative="1" as="geometry" />
        </mxCell>
        <mxCell id="pvfYnb17vEtcrrkuYDLX-51" value="if == 1" style="rhombus;whiteSpace=wrap;html=1;fillColor=#A8DADC;strokeColor=#457B9D;fontColor=#1D3557;strokeWidth=2;labelBackgroundColor=none;" parent="1" vertex="1">
          <mxGeometry x="2890" y="1190" width="160" height="80" as="geometry" />
        </mxCell>
        <mxCell id="pvfYnb17vEtcrrkuYDLX-52" value="Input =&lt;div&gt;judul_film&lt;/div&gt;" style="shape=parallelogram;perimeter=parallelogramPerimeter;whiteSpace=wrap;html=1;fixedSize=1;fillColor=#A8DADC;strokeColor=#457B9D;fontColor=#1D3557;strokeWidth=2;labelBackgroundColor=none;" parent="1" vertex="1">
          <mxGeometry x="3060" y="1391.02" width="130" height="70" as="geometry" />
        </mxCell>
        <mxCell id="pvfYnb17vEtcrrkuYDLX-53" value="if == 2" style="rhombus;whiteSpace=wrap;html=1;fillColor=#A8DADC;strokeColor=#457B9D;fontColor=#1D3557;strokeWidth=2;labelBackgroundColor=none;" parent="1" vertex="1">
          <mxGeometry x="2640" y="1290" width="160" height="80" as="geometry" />
        </mxCell>
        <mxCell id="pvfYnb17vEtcrrkuYDLX-54" value="True" style="text;html=1;align=center;verticalAlign=middle;resizable=0;points=[];autosize=1;strokeColor=none;fillColor=none;fontColor=#1D3557;" parent="1" vertex="1">
          <mxGeometry x="3055" y="1198" width="50" height="30" as="geometry" />
        </mxCell>
        <mxCell id="pvfYnb17vEtcrrkuYDLX-55" value="False" style="text;html=1;align=center;verticalAlign=middle;resizable=0;points=[];autosize=1;strokeColor=none;fillColor=none;fontColor=#1D3557;" parent="1" vertex="1">
          <mxGeometry x="2795" y="1198" width="50" height="30" as="geometry" />
        </mxCell>
        <mxCell id="pvfYnb17vEtcrrkuYDLX-56" value="if = 3" style="strokeWidth=2;html=1;shape=mxgraph.flowchart.decision;whiteSpace=wrap;labelBackgroundColor=none;fillColor=#A8DADC;strokeColor=#457B9D;fontColor=#1D3557;align=center;" parent="1" vertex="1">
          <mxGeometry x="1768" y="502" width="106.37" height="60" as="geometry" />
        </mxCell>
        <mxCell id="pvfYnb17vEtcrrkuYDLX-57" value="" style="endArrow=classic;html=1;rounded=0;" parent="1" edge="1">
          <mxGeometry width="50" height="50" relative="1" as="geometry">
            <mxPoint x="3125" y="1562" as="sourcePoint" />
            <mxPoint x="3125" y="1592" as="targetPoint" />
          </mxGeometry>
        </mxCell>
        <mxCell id="pvfYnb17vEtcrrkuYDLX-58" value="Input =&lt;div&gt;&lt;span style=&quot;background-color: initial;&quot;&gt;sisa_tiket&lt;/span&gt;&lt;/div&gt;" style="shape=parallelogram;perimeter=parallelogramPerimeter;whiteSpace=wrap;html=1;fixedSize=1;fillColor=#A8DADC;strokeColor=#457B9D;fontColor=#1D3557;strokeWidth=2;labelBackgroundColor=none;align=center;" parent="1" vertex="1">
          <mxGeometry x="3060" y="1592" width="130" height="70" as="geometry" />
        </mxCell>
        <mxCell id="pvfYnb17vEtcrrkuYDLX-59" value="Input =&lt;div&gt;harga_tiket&lt;/div&gt;" style="shape=parallelogram;perimeter=parallelogramPerimeter;whiteSpace=wrap;html=1;fixedSize=1;fillColor=#A8DADC;strokeColor=#457B9D;fontColor=#1D3557;strokeWidth=2;labelBackgroundColor=none;align=center;" parent="1" vertex="1">
          <mxGeometry x="3060" y="1793" width="130" height="70" as="geometry" />
        </mxCell>
        <mxCell id="pvfYnb17vEtcrrkuYDLX-60" value="" style="endArrow=classic;html=1;rounded=0;" parent="1" edge="1">
          <mxGeometry width="50" height="50" relative="1" as="geometry">
            <mxPoint x="3125" y="1762" as="sourcePoint" />
            <mxPoint x="3125" y="1792" as="targetPoint" />
          </mxGeometry>
        </mxCell>
        <mxCell id="pvfYnb17vEtcrrkuYDLX-61" value="" style="endArrow=classic;html=1;rounded=0;" parent="1" edge="1">
          <mxGeometry width="50" height="50" relative="1" as="geometry">
            <mxPoint x="3125" y="1863" as="sourcePoint" />
            <mxPoint x="3125" y="1893" as="targetPoint" />
          </mxGeometry>
        </mxCell>
        <mxCell id="pvfYnb17vEtcrrkuYDLX-62" value="" style="edgeStyle=orthogonalEdgeStyle;rounded=0;orthogonalLoop=1;jettySize=auto;html=1;strokeColor=#457B9D;fontColor=#1D3557;fillColor=#A8DADC;" parent="1" edge="1">
          <mxGeometry relative="1" as="geometry">
            <mxPoint x="2643" y="1329" as="sourcePoint" />
            <mxPoint x="2473" y="1389" as="targetPoint" />
          </mxGeometry>
        </mxCell>
        <mxCell id="pvfYnb17vEtcrrkuYDLX-63" value="" style="edgeStyle=orthogonalEdgeStyle;rounded=0;orthogonalLoop=1;jettySize=auto;html=1;strokeColor=#457B9D;fontColor=#1D3557;fillColor=#A8DADC;exitX=0.915;exitY=0.473;exitDx=0;exitDy=0;exitPerimeter=0;" parent="1" edge="1">
          <mxGeometry relative="1" as="geometry">
            <mxPoint x="2801" y="1327" as="sourcePoint" />
            <Array as="points">
              <mxPoint x="2801" y="1329" />
              <mxPoint x="2890" y="1329" />
            </Array>
            <mxPoint x="2890" y="1349" as="targetPoint" />
          </mxGeometry>
        </mxCell>
        <mxCell id="pvfYnb17vEtcrrkuYDLX-64" value="False" style="text;html=1;align=center;verticalAlign=middle;resizable=0;points=[];autosize=1;strokeColor=none;fillColor=none;fontColor=#1D3557;" parent="1" vertex="1">
          <mxGeometry x="2540" y="1300" width="50" height="30" as="geometry" />
        </mxCell>
        <mxCell id="pvfYnb17vEtcrrkuYDLX-65" value="True" style="text;html=1;align=center;verticalAlign=middle;resizable=0;points=[];autosize=1;strokeColor=none;fillColor=none;fontColor=#1D3557;" parent="1" vertex="1">
          <mxGeometry x="2820" y="1300" width="50" height="30" as="geometry" />
        </mxCell>
        <mxCell id="pvfYnb17vEtcrrkuYDLX-66" value="if == 3" style="rhombus;whiteSpace=wrap;html=1;fillColor=#A8DADC;strokeColor=#457B9D;fontColor=#1D3557;strokeWidth=2;labelBackgroundColor=none;" parent="1" vertex="1">
          <mxGeometry x="2393" y="1390" width="160" height="80" as="geometry" />
        </mxCell>
        <mxCell id="pvfYnb17vEtcrrkuYDLX-67" style="edgeStyle=orthogonalEdgeStyle;rounded=0;orthogonalLoop=1;jettySize=auto;html=1;exitX=0.5;exitY=1;exitDx=0;exitDy=0;" parent="1" edge="1">
          <mxGeometry relative="1" as="geometry">
            <mxPoint x="2888" y="1450" as="sourcePoint" />
            <mxPoint x="3043" y="1040" as="targetPoint" />
            <Array as="points">
              <mxPoint x="2888" y="2070" />
              <mxPoint x="3243" y="2070" />
              <mxPoint x="3243" y="1040" />
              <mxPoint x="3053" y="1040" />
            </Array>
          </mxGeometry>
        </mxCell>
        <mxCell id="pvfYnb17vEtcrrkuYDLX-68" value="Output = (f&quot;ID:&lt;div&gt;{id_film}, Judul:&lt;/div&gt;&lt;div&gt;{movie[&#39;judul&#39;]}, Sisa&lt;/div&gt;&lt;div&gt;Tiket: {movie[&#39;sisa_tiket]},&lt;/div&gt;&lt;div&gt;Harga Tiket:&amp;nbsp;&lt;/div&gt;&lt;div&gt;{movie[harga_tiket]}&quot;)&lt;/div&gt;" style="shape=parallelogram;perimeter=parallelogramPerimeter;whiteSpace=wrap;html=1;fixedSize=1;fillColor=#A8DADC;strokeColor=#457B9D;fontColor=#1D3557;strokeWidth=2;labelBackgroundColor=none;align=center;" parent="1" vertex="1">
          <mxGeometry x="2810" y="1351" width="160" height="99" as="geometry" />
        </mxCell>
        <mxCell id="pvfYnb17vEtcrrkuYDLX-69" value="" style="edgeStyle=orthogonalEdgeStyle;rounded=0;orthogonalLoop=1;jettySize=auto;html=1;strokeColor=#457B9D;fontColor=#1D3557;fillColor=#A8DADC;exitX=0.915;exitY=0.473;exitDx=0;exitDy=0;exitPerimeter=0;" parent="1" edge="1">
          <mxGeometry relative="1" as="geometry">
            <mxPoint x="2553" y="1428" as="sourcePoint" />
            <Array as="points">
              <mxPoint x="2553" y="1430" />
              <mxPoint x="2642" y="1430" />
            </Array>
            <mxPoint x="2642" y="1450" as="targetPoint" />
          </mxGeometry>
        </mxCell>
        <mxCell id="pvfYnb17vEtcrrkuYDLX-70" value="" style="edgeStyle=orthogonalEdgeStyle;rounded=0;orthogonalLoop=1;jettySize=auto;html=1;strokeColor=#457B9D;fontColor=#1D3557;fillColor=#A8DADC;" parent="1" edge="1">
          <mxGeometry relative="1" as="geometry">
            <mxPoint x="2393" y="1430" as="sourcePoint" />
            <mxPoint x="2223" y="1490" as="targetPoint" />
          </mxGeometry>
        </mxCell>
        <mxCell id="pvfYnb17vEtcrrkuYDLX-71" value="True" style="text;html=1;align=center;verticalAlign=middle;resizable=0;points=[];autosize=1;strokeColor=none;fillColor=none;fontColor=#1D3557;" parent="1" vertex="1">
          <mxGeometry x="2573.19" y="1400" width="50" height="30" as="geometry" />
        </mxCell>
        <mxCell id="pvfYnb17vEtcrrkuYDLX-72" value="False" style="text;html=1;align=center;verticalAlign=middle;resizable=0;points=[];autosize=1;strokeColor=none;fillColor=none;fontColor=#1D3557;" parent="1" vertex="1">
          <mxGeometry x="2290" y="1400" width="50" height="30" as="geometry" />
        </mxCell>
        <mxCell id="pvfYnb17vEtcrrkuYDLX-73" value="&amp;nbsp; &amp;nbsp;Output = &quot;:Masukan&lt;div&gt;&lt;span style=&quot;background-color: initial;&quot;&gt;judul baru&lt;/span&gt;&lt;/div&gt;&lt;div&gt;(saat ini:&amp;nbsp;&lt;span style=&quot;background-color: initial;&quot;&gt;{movie[&#39;judul]}:&lt;/span&gt;&lt;/div&gt;&lt;div&gt;&lt;span style=&quot;background-color: initial;&quot;&gt;&amp;nbsp;&quot;) or movie[&quot;judul&quot;]&lt;/span&gt;&lt;/div&gt;" style="shape=parallelogram;perimeter=parallelogramPerimeter;whiteSpace=wrap;html=1;fixedSize=1;fillColor=#A8DADC;strokeColor=#457B9D;fontColor=#1D3557;strokeWidth=2;labelBackgroundColor=none;align=center;" parent="1" vertex="1">
          <mxGeometry x="2560" y="1550" width="160" height="80" as="geometry" />
        </mxCell>
        <mxCell id="pvfYnb17vEtcrrkuYDLX-74" value="&amp;nbsp; Input =&amp;nbsp;&lt;div&gt;judul_film&lt;/div&gt;" style="shape=parallelogram;perimeter=parallelogramPerimeter;whiteSpace=wrap;html=1;fixedSize=1;fillColor=#A8DADC;strokeColor=#457B9D;fontColor=#1D3557;strokeWidth=2;labelBackgroundColor=none;align=center;" parent="1" vertex="1">
          <mxGeometry x="2571.03" y="1652" width="130" height="68" as="geometry" />
        </mxCell>
        <mxCell id="pvfYnb17vEtcrrkuYDLX-75" value="" style="edgeStyle=orthogonalEdgeStyle;rounded=0;orthogonalLoop=1;jettySize=auto;html=1;strokeColor=#457B9D;fontColor=#1D3557;fillColor=#A8DADC;" parent="1" edge="1">
          <mxGeometry relative="1" as="geometry">
            <mxPoint x="2641" y="1621" as="sourcePoint" />
            <mxPoint x="2641" y="1651" as="targetPoint" />
          </mxGeometry>
        </mxCell>
        <mxCell id="pvfYnb17vEtcrrkuYDLX-76" value="&amp;nbsp; &amp;nbsp;Output = int(input(&lt;div&gt;f&quot;Masukan Sisa Tiket&lt;/div&gt;&lt;div&gt;baru&amp;nbsp; (saat ini: {movie&lt;/div&gt;&lt;div&gt;[&#39;judul&#39;]}): &quot;) or movie&lt;/div&gt;&lt;div&gt;[&quot;judul&quot;]&lt;/div&gt;" style="shape=parallelogram;perimeter=parallelogramPerimeter;whiteSpace=wrap;html=1;fixedSize=1;fillColor=#A8DADC;strokeColor=#457B9D;fontColor=#1D3557;strokeWidth=2;labelBackgroundColor=none;align=center;" parent="1" vertex="1">
          <mxGeometry x="2555" y="1751" width="160" height="79" as="geometry" />
        </mxCell>
        <mxCell id="pvfYnb17vEtcrrkuYDLX-77" value="&amp;nbsp; Input =&amp;nbsp;&lt;div&gt;jumlah_tiket&lt;/div&gt;" style="shape=parallelogram;perimeter=parallelogramPerimeter;whiteSpace=wrap;html=1;fixedSize=1;fillColor=#A8DADC;strokeColor=#457B9D;fontColor=#1D3557;strokeWidth=2;labelBackgroundColor=none;align=center;" parent="1" vertex="1">
          <mxGeometry x="2570.03" y="1850" width="130" height="68" as="geometry" />
        </mxCell>
        <mxCell id="pvfYnb17vEtcrrkuYDLX-78" value="" style="edgeStyle=orthogonalEdgeStyle;rounded=0;orthogonalLoop=1;jettySize=auto;html=1;strokeColor=#457B9D;fontColor=#1D3557;fillColor=#A8DADC;" parent="1" edge="1">
          <mxGeometry relative="1" as="geometry">
            <mxPoint x="2640" y="1830" as="sourcePoint" />
            <mxPoint x="2640" y="1850" as="targetPoint" />
          </mxGeometry>
        </mxCell>
        <mxCell id="pvfYnb17vEtcrrkuYDLX-79" value="" style="edgeStyle=orthogonalEdgeStyle;rounded=0;orthogonalLoop=1;jettySize=auto;html=1;strokeColor=#457B9D;fontColor=#1D3557;fillColor=#A8DADC;" parent="1" edge="1">
          <mxGeometry relative="1" as="geometry">
            <mxPoint x="2641" y="1720" as="sourcePoint" />
            <mxPoint x="2641" y="1750" as="targetPoint" />
          </mxGeometry>
        </mxCell>
        <mxCell id="pvfYnb17vEtcrrkuYDLX-80" value="&amp;nbsp; Input =&amp;nbsp;&lt;div&gt;id_film&lt;/div&gt;" style="shape=parallelogram;perimeter=parallelogramPerimeter;whiteSpace=wrap;html=1;fixedSize=1;fillColor=#A8DADC;strokeColor=#457B9D;fontColor=#1D3557;strokeWidth=2;labelBackgroundColor=none;align=center;" parent="1" vertex="1">
          <mxGeometry x="2572.03" y="1451" width="130" height="68" as="geometry" />
        </mxCell>
        <mxCell id="pvfYnb17vEtcrrkuYDLX-81" value="" style="edgeStyle=orthogonalEdgeStyle;rounded=0;orthogonalLoop=1;jettySize=auto;html=1;strokeColor=#457B9D;fontColor=#1D3557;fillColor=#A8DADC;" parent="1" edge="1">
          <mxGeometry relative="1" as="geometry">
            <mxPoint x="2642" y="1519" as="sourcePoint" />
            <mxPoint x="2642" y="1549" as="targetPoint" />
          </mxGeometry>
        </mxCell>
        <mxCell id="pvfYnb17vEtcrrkuYDLX-82" value="&amp;nbsp; &amp;nbsp;Output = int(input(&lt;div&gt;f&quot;Masukan harga tiket&lt;/div&gt;&lt;div&gt;baru (saat ini: {movie&lt;/div&gt;&lt;div&gt;[&#39;harga_tiket&#39;]}): &quot;)&lt;/div&gt;&lt;div&gt;or movie[&quot;harga_tiket&quot;)&lt;/div&gt;" style="shape=parallelogram;perimeter=parallelogramPerimeter;whiteSpace=wrap;html=1;fixedSize=1;fillColor=#A8DADC;strokeColor=#457B9D;fontColor=#1D3557;strokeWidth=2;labelBackgroundColor=none;align=center;" parent="1" vertex="1">
          <mxGeometry x="2550" y="1948" width="170" height="82" as="geometry" />
        </mxCell>
        <mxCell id="pvfYnb17vEtcrrkuYDLX-83" value="&amp;nbsp; Input =&amp;nbsp;&lt;div&gt;harga_tiket&lt;/div&gt;" style="shape=parallelogram;perimeter=parallelogramPerimeter;whiteSpace=wrap;html=1;fixedSize=1;fillColor=#A8DADC;strokeColor=#457B9D;fontColor=#1D3557;strokeWidth=2;labelBackgroundColor=none;align=center;" parent="1" vertex="1">
          <mxGeometry x="2571.03" y="2049" width="130" height="68" as="geometry" />
        </mxCell>
        <mxCell id="pvfYnb17vEtcrrkuYDLX-84" value="" style="edgeStyle=orthogonalEdgeStyle;rounded=0;orthogonalLoop=1;jettySize=auto;html=1;strokeColor=#457B9D;fontColor=#1D3557;fillColor=#A8DADC;" parent="1" edge="1">
          <mxGeometry relative="1" as="geometry">
            <mxPoint x="2640" y="2030" as="sourcePoint" />
            <mxPoint x="2641" y="2047" as="targetPoint" />
          </mxGeometry>
        </mxCell>
        <mxCell id="pvfYnb17vEtcrrkuYDLX-85" value="" style="edgeStyle=orthogonalEdgeStyle;rounded=0;orthogonalLoop=1;jettySize=auto;html=1;strokeColor=#457B9D;fontColor=#1D3557;fillColor=#A8DADC;" parent="1" edge="1">
          <mxGeometry relative="1" as="geometry">
            <mxPoint x="2640" y="1918" as="sourcePoint" />
            <mxPoint x="2640" y="1948" as="targetPoint" />
          </mxGeometry>
        </mxCell>
        <mxCell id="pvfYnb17vEtcrrkuYDLX-86" style="edgeStyle=orthogonalEdgeStyle;rounded=0;orthogonalLoop=1;jettySize=auto;html=1;entryX=1;entryY=0.5;entryDx=0;entryDy=0;" parent="1" edge="1">
          <mxGeometry relative="1" as="geometry">
            <mxPoint x="2693.05" y="2271" as="sourcePoint" />
            <mxPoint x="3049.9999999999995" y="1011.7450000000001" as="targetPoint" />
            <Array as="points">
              <mxPoint x="3270" y="2271" />
              <mxPoint x="3270" y="1012" />
            </Array>
          </mxGeometry>
        </mxCell>
        <mxCell id="pvfYnb17vEtcrrkuYDLX-87" value="&amp;nbsp; &amp;nbsp;Output = &quot;Film&amp;nbsp;&lt;div&gt;dengan ID {id_film} berhasil&lt;div&gt;&lt;span style=&quot;background-color: initial;&quot;&gt;diupdate. &quot;&lt;/span&gt;&lt;/div&gt;&lt;/div&gt;" style="shape=parallelogram;perimeter=parallelogramPerimeter;whiteSpace=wrap;html=1;fixedSize=1;fillColor=#A8DADC;strokeColor=#457B9D;fontColor=#1D3557;strokeWidth=2;labelBackgroundColor=none;align=center;" parent="1" vertex="1">
          <mxGeometry x="2571" y="2238" width="132.05" height="70" as="geometry" />
        </mxCell>
        <mxCell id="pvfYnb17vEtcrrkuYDLX-88" value="" style="edgeStyle=orthogonalEdgeStyle;rounded=0;orthogonalLoop=1;jettySize=auto;html=1;strokeColor=#457B9D;fontColor=#1D3557;fillColor=#A8DADC;" parent="1" edge="1">
          <mxGeometry relative="1" as="geometry">
            <mxPoint x="2641" y="2115" as="sourcePoint" />
            <mxPoint x="2641" y="2145" as="targetPoint" />
          </mxGeometry>
        </mxCell>
        <mxCell id="pvfYnb17vEtcrrkuYDLX-89" value="Output =&amp;nbsp;&lt;div&gt;&quot;Film tidak&amp;nbsp;&lt;/div&gt;&lt;div&gt;&lt;span style=&quot;background-color: initial;&quot;&gt;ditemukan &quot;&lt;/span&gt;&lt;/div&gt;" style="shape=parallelogram;perimeter=parallelogramPerimeter;whiteSpace=wrap;html=1;fixedSize=1;fillColor=#A8DADC;strokeColor=#457B9D;fontColor=#1D3557;strokeWidth=2;labelBackgroundColor=none;align=center;" parent="1" vertex="1">
          <mxGeometry x="2154" y="1491" width="130" height="68" as="geometry" />
        </mxCell>
        <mxCell id="pvfYnb17vEtcrrkuYDLX-90" value="" style="edgeStyle=orthogonalEdgeStyle;rounded=0;orthogonalLoop=1;jettySize=auto;html=1;strokeColor=#457B9D;fontColor=#1D3557;fillColor=#A8DADC;" parent="1" edge="1">
          <mxGeometry relative="1" as="geometry">
            <mxPoint x="2224" y="1558" as="sourcePoint" />
            <mxPoint x="2224" y="1588" as="targetPoint" />
          </mxGeometry>
        </mxCell>
        <mxCell id="pvfYnb17vEtcrrkuYDLX-91" value="if == 4" style="rhombus;whiteSpace=wrap;html=1;fillColor=#A8DADC;strokeColor=#457B9D;fontColor=#1D3557;strokeWidth=2;labelBackgroundColor=none;" parent="1" vertex="1">
          <mxGeometry x="2145.29" y="1590" width="160" height="80" as="geometry" />
        </mxCell>
        <mxCell id="pvfYnb17vEtcrrkuYDLX-92" value="" style="edgeStyle=orthogonalEdgeStyle;rounded=0;orthogonalLoop=1;jettySize=auto;html=1;strokeColor=#457B9D;fontColor=#1D3557;fillColor=#A8DADC;exitX=0.915;exitY=0.473;exitDx=0;exitDy=0;exitPerimeter=0;" parent="1" edge="1">
          <mxGeometry relative="1" as="geometry">
            <mxPoint x="2305.29" y="1628" as="sourcePoint" />
            <Array as="points">
              <mxPoint x="2305.29" y="1630" />
              <mxPoint x="2394.29" y="1630" />
            </Array>
            <mxPoint x="2394.29" y="1650" as="targetPoint" />
          </mxGeometry>
        </mxCell>
        <mxCell id="pvfYnb17vEtcrrkuYDLX-93" value="" style="edgeStyle=orthogonalEdgeStyle;rounded=0;orthogonalLoop=1;jettySize=auto;html=1;strokeColor=#457B9D;fontColor=#1D3557;fillColor=#A8DADC;" parent="1" edge="1">
          <mxGeometry relative="1" as="geometry">
            <mxPoint x="2145.29" y="1630" as="sourcePoint" />
            <mxPoint x="1975.29" y="1690" as="targetPoint" />
          </mxGeometry>
        </mxCell>
        <mxCell id="pvfYnb17vEtcrrkuYDLX-94" value="True" style="text;html=1;align=center;verticalAlign=middle;resizable=0;points=[];autosize=1;strokeColor=none;fillColor=none;fontColor=#1D3557;" parent="1" vertex="1">
          <mxGeometry x="2325.48" y="1600" width="50" height="30" as="geometry" />
        </mxCell>
        <mxCell id="pvfYnb17vEtcrrkuYDLX-95" value="False" style="text;html=1;align=center;verticalAlign=middle;resizable=0;points=[];autosize=1;strokeColor=none;fillColor=none;fontColor=#1D3557;" parent="1" vertex="1">
          <mxGeometry x="2042.29" y="1600" width="50" height="30" as="geometry" />
        </mxCell>
        <mxCell id="pvfYnb17vEtcrrkuYDLX-96" value="&amp;nbsp; Input =&amp;nbsp;&lt;div&gt;id_film&lt;/div&gt;" style="shape=parallelogram;perimeter=parallelogramPerimeter;whiteSpace=wrap;html=1;fixedSize=1;fillColor=#A8DADC;strokeColor=#457B9D;fontColor=#1D3557;strokeWidth=2;labelBackgroundColor=none;align=center;" parent="1" vertex="1">
          <mxGeometry x="2325.48" y="1652" width="130" height="68" as="geometry" />
        </mxCell>
        <mxCell id="pvfYnb17vEtcrrkuYDLX-97" value="&amp;nbsp; &amp;nbsp;Output = &quot;Masukan&lt;div&gt;&lt;span style=&quot;background-color: initial;&quot;&gt;ID film yang ingin&lt;/span&gt;&lt;/div&gt;&lt;div&gt;&lt;span style=&quot;background-color: initial;&quot;&gt;dihapus: &quot;&lt;/span&gt;&lt;/div&gt;" style="shape=parallelogram;perimeter=parallelogramPerimeter;whiteSpace=wrap;html=1;fixedSize=1;fillColor=#A8DADC;strokeColor=#457B9D;fontColor=#1D3557;strokeWidth=2;labelBackgroundColor=none;align=center;" parent="1" vertex="1">
          <mxGeometry x="2323" y="1753" width="132.05" height="70" as="geometry" />
        </mxCell>
        <mxCell id="pvfYnb17vEtcrrkuYDLX-98" value="" style="edgeStyle=orthogonalEdgeStyle;rounded=0;orthogonalLoop=1;jettySize=auto;html=1;strokeColor=#457B9D;fontColor=#1D3557;fillColor=#A8DADC;" parent="1" edge="1">
          <mxGeometry relative="1" as="geometry">
            <mxPoint x="2394" y="1721" as="sourcePoint" />
            <mxPoint x="2394" y="1751" as="targetPoint" />
          </mxGeometry>
        </mxCell>
        <mxCell id="pvfYnb17vEtcrrkuYDLX-99" value="&amp;nbsp; Input =&lt;div&gt;Hapus Film&lt;/div&gt;" style="shape=parallelogram;perimeter=parallelogramPerimeter;whiteSpace=wrap;html=1;fixedSize=1;fillColor=#A8DADC;strokeColor=#457B9D;fontColor=#1D3557;strokeWidth=2;labelBackgroundColor=none;align=center;" parent="1" vertex="1">
          <mxGeometry x="2324.02" y="1855" width="130" height="68" as="geometry" />
        </mxCell>
        <mxCell id="pvfYnb17vEtcrrkuYDLX-100" value="" style="edgeStyle=orthogonalEdgeStyle;rounded=0;orthogonalLoop=1;jettySize=auto;html=1;strokeColor=#457B9D;fontColor=#1D3557;fillColor=#A8DADC;" parent="1" edge="1">
          <mxGeometry relative="1" as="geometry">
            <mxPoint x="2394" y="1824" as="sourcePoint" />
            <mxPoint x="2394" y="1854" as="targetPoint" />
          </mxGeometry>
        </mxCell>
        <mxCell id="pvfYnb17vEtcrrkuYDLX-101" style="edgeStyle=orthogonalEdgeStyle;rounded=0;orthogonalLoop=1;jettySize=auto;html=1;entryX=1;entryY=0.25;entryDx=0;entryDy=0;" parent="1" source="pvfYnb17vEtcrrkuYDLX-102" target="pvfYnb17vEtcrrkuYDLX-46" edge="1">
          <mxGeometry relative="1" as="geometry">
            <Array as="points">
              <mxPoint x="2388" y="2340" />
              <mxPoint x="3300" y="2340" />
              <mxPoint x="3300" y="988" />
            </Array>
          </mxGeometry>
        </mxCell>
        <mxCell id="pvfYnb17vEtcrrkuYDLX-102" value="Output = &quot;Film&amp;nbsp;&lt;div&gt;dengan ID {id_film}&lt;/div&gt;&lt;div&gt;berhasil dihapus.&quot;&lt;/div&gt;" style="shape=parallelogram;perimeter=parallelogramPerimeter;whiteSpace=wrap;html=1;fixedSize=1;fillColor=#A8DADC;strokeColor=#457B9D;fontColor=#1D3557;strokeWidth=2;labelBackgroundColor=none;align=center;" parent="1" vertex="1">
          <mxGeometry x="2322.99" y="2046" width="130" height="68" as="geometry" />
        </mxCell>
        <mxCell id="pvfYnb17vEtcrrkuYDLX-103" value="" style="edgeStyle=orthogonalEdgeStyle;rounded=0;orthogonalLoop=1;jettySize=auto;html=1;strokeColor=#457B9D;fontColor=#1D3557;fillColor=#A8DADC;" parent="1" edge="1">
          <mxGeometry relative="1" as="geometry">
            <mxPoint x="2393.97" y="2014" as="sourcePoint" />
            <mxPoint x="2393.97" y="2044" as="targetPoint" />
          </mxGeometry>
        </mxCell>
        <mxCell id="pvfYnb17vEtcrrkuYDLX-104" value="" style="edgeStyle=orthogonalEdgeStyle;rounded=0;orthogonalLoop=1;jettySize=auto;html=1;strokeColor=#457B9D;fontColor=#1D3557;fillColor=#A8DADC;" parent="1" edge="1">
          <mxGeometry relative="1" as="geometry">
            <mxPoint x="2394" y="1923" as="sourcePoint" />
            <mxPoint x="2394" y="1953" as="targetPoint" />
          </mxGeometry>
        </mxCell>
        <mxCell id="pvfYnb17vEtcrrkuYDLX-105" value="if movies.pop(id_film,&lt;div&gt;None):&lt;/div&gt;" style="whiteSpace=wrap;html=1;fillColor=#A8DADC;strokeColor=#457B9D;fontColor=#1D3557;strokeWidth=2;labelBackgroundColor=none;" parent="1" vertex="1">
          <mxGeometry x="2327" y="1954" width="120" height="60" as="geometry" />
        </mxCell>
        <mxCell id="pvfYnb17vEtcrrkuYDLX-106" value="&amp;nbsp; &amp;nbsp;Output = &quot; Film&amp;nbsp;&lt;div&gt;&lt;span style=&quot;background-color: initial;&quot;&gt;tidak ditemukan. &quot;&lt;/span&gt;&lt;/div&gt;" style="shape=parallelogram;perimeter=parallelogramPerimeter;whiteSpace=wrap;html=1;fixedSize=1;fillColor=#A8DADC;strokeColor=#457B9D;fontColor=#1D3557;strokeWidth=2;labelBackgroundColor=none;align=center;" parent="1" vertex="1">
          <mxGeometry x="1905.16" y="1691" width="132.05" height="70" as="geometry" />
        </mxCell>
        <mxCell id="pvfYnb17vEtcrrkuYDLX-107" style="edgeStyle=orthogonalEdgeStyle;rounded=0;orthogonalLoop=1;jettySize=auto;html=1;entryX=1;entryY=1;entryDx=0;entryDy=0;" parent="1" source="pvfYnb17vEtcrrkuYDLX-108" target="pvfYnb17vEtcrrkuYDLX-46" edge="1">
          <mxGeometry relative="1" as="geometry">
            <Array as="points">
              <mxPoint x="3210" y="2021" />
              <mxPoint x="3210" y="1058" />
            </Array>
          </mxGeometry>
        </mxCell>
        <mxCell id="pvfYnb17vEtcrrkuYDLX-108" value="Output=&quot;Film&lt;div&gt;&#39;{judul_film}&#39;&lt;/div&gt;&lt;div&gt;berhasil&amp;nbsp;&lt;/div&gt;&lt;div&gt;ditambahkan.&quot;&lt;/div&gt;" style="shape=parallelogram;perimeter=parallelogramPerimeter;whiteSpace=wrap;html=1;fixedSize=1;fillColor=#A8DADC;strokeColor=#457B9D;fontColor=#1D3557;strokeWidth=2;labelBackgroundColor=none;align=center;" parent="1" vertex="1">
          <mxGeometry x="3060" y="1986" width="130" height="70" as="geometry" />
        </mxCell>
        <mxCell id="pvfYnb17vEtcrrkuYDLX-109" value="" style="endArrow=classic;html=1;rounded=0;" parent="1" edge="1">
          <mxGeometry width="50" height="50" relative="1" as="geometry">
            <mxPoint x="3125" y="1955" as="sourcePoint" />
            <mxPoint x="3125" y="1985" as="targetPoint" />
          </mxGeometry>
        </mxCell>
        <mxCell id="pvfYnb17vEtcrrkuYDLX-110" value="Tambah_Film =&lt;div&gt;judul_film +&lt;/div&gt;&lt;div&gt;sisa_tiket +&lt;/div&gt;&lt;div&gt;harga_tiket&lt;/div&gt;" style="whiteSpace=wrap;html=1;fillColor=#A8DADC;strokeColor=#457B9D;fontColor=#1D3557;strokeWidth=2;labelBackgroundColor=none;" parent="1" vertex="1">
          <mxGeometry x="3062" y="1894" width="125" height="60" as="geometry" />
        </mxCell>
        <mxCell id="pvfYnb17vEtcrrkuYDLX-111" value="id_film =&lt;div&gt;judul_film +&lt;/div&gt;&lt;div&gt;jumlah_tiket +&lt;/div&gt;&lt;div&gt;harga_tiket&lt;/div&gt;" style="whiteSpace=wrap;html=1;fillColor=#A8DADC;strokeColor=#457B9D;fontColor=#1D3557;strokeWidth=2;labelBackgroundColor=none;" parent="1" vertex="1">
          <mxGeometry x="2570" y="2146" width="125" height="60" as="geometry" />
        </mxCell>
        <mxCell id="pvfYnb17vEtcrrkuYDLX-112" value="" style="edgeStyle=orthogonalEdgeStyle;rounded=0;orthogonalLoop=1;jettySize=auto;html=1;strokeColor=#457B9D;fontColor=#1D3557;fillColor=#A8DADC;" parent="1" edge="1">
          <mxGeometry relative="1" as="geometry">
            <mxPoint x="2641" y="2206" as="sourcePoint" />
            <mxPoint x="2641" y="2236" as="targetPoint" />
          </mxGeometry>
        </mxCell>
        <mxCell id="pvfYnb17vEtcrrkuYDLX-113" value="Output=&quot;Masukan&amp;nbsp;&lt;div&gt;judul Film&lt;span style=&quot;background-color: initial;&quot;&gt;&quot;&lt;/span&gt;&lt;/div&gt;" style="shape=parallelogram;perimeter=parallelogramPerimeter;whiteSpace=wrap;html=1;fixedSize=1;fillColor=#A8DADC;strokeColor=#457B9D;fontColor=#1D3557;strokeWidth=2;labelBackgroundColor=none;align=center;" parent="1" vertex="1">
          <mxGeometry x="3059.5" y="1290" width="130" height="70" as="geometry" />
        </mxCell>
        <mxCell id="pvfYnb17vEtcrrkuYDLX-114" value="" style="endArrow=classic;html=1;rounded=0;" parent="1" edge="1">
          <mxGeometry width="50" height="50" relative="1" as="geometry">
            <mxPoint x="3124" y="1360" as="sourcePoint" />
            <mxPoint x="3124" y="1390" as="targetPoint" />
          </mxGeometry>
        </mxCell>
        <mxCell id="pvfYnb17vEtcrrkuYDLX-115" value="Output=&quot;Masukan&lt;div&gt;&lt;span style=&quot;background-color: initial;&quot;&gt;jumlah tiket&quot;&lt;/span&gt;&lt;/div&gt;" style="shape=parallelogram;perimeter=parallelogramPerimeter;whiteSpace=wrap;html=1;fixedSize=1;fillColor=#A8DADC;strokeColor=#457B9D;fontColor=#1D3557;strokeWidth=2;labelBackgroundColor=none;align=center;" parent="1" vertex="1">
          <mxGeometry x="3059.5" y="1491" width="130" height="70" as="geometry" />
        </mxCell>
        <mxCell id="pvfYnb17vEtcrrkuYDLX-116" value="" style="endArrow=classic;html=1;rounded=0;" parent="1" edge="1">
          <mxGeometry width="50" height="50" relative="1" as="geometry">
            <mxPoint x="3124" y="1460" as="sourcePoint" />
            <mxPoint x="3124" y="1490" as="targetPoint" />
          </mxGeometry>
        </mxCell>
        <mxCell id="pvfYnb17vEtcrrkuYDLX-117" value="Output=&quot;Masukan&lt;div&gt;&lt;span style=&quot;background-color: initial;&quot;&gt;harga tiket&quot;&lt;/span&gt;&lt;/div&gt;" style="shape=parallelogram;perimeter=parallelogramPerimeter;whiteSpace=wrap;html=1;fixedSize=1;fillColor=#A8DADC;strokeColor=#457B9D;fontColor=#1D3557;strokeWidth=2;labelBackgroundColor=none;align=center;" parent="1" vertex="1">
          <mxGeometry x="3060" y="1692" width="130" height="70" as="geometry" />
        </mxCell>
        <mxCell id="pvfYnb17vEtcrrkuYDLX-118" value="" style="endArrow=classic;html=1;rounded=0;" parent="1" edge="1">
          <mxGeometry width="50" height="50" relative="1" as="geometry">
            <mxPoint x="3124" y="1661" as="sourcePoint" />
            <mxPoint x="3124" y="1691" as="targetPoint" />
          </mxGeometry>
        </mxCell>
        <mxCell id="pvfYnb17vEtcrrkuYDLX-119" value="if status == &quot;pengguna&quot;" style="rhombus;whiteSpace=wrap;html=1;fillColor=#A8DADC;strokeColor=#457B9D;fontColor=#1D3557;strokeWidth=2;labelBackgroundColor=none;" parent="1" vertex="1">
          <mxGeometry x="3724.19" y="411.25" width="180" height="67.5" as="geometry" />
        </mxCell>
        <mxCell id="pvfYnb17vEtcrrkuYDLX-120" value="if == 5" style="rhombus;whiteSpace=wrap;html=1;fillColor=#A8DADC;strokeColor=#457B9D;fontColor=#1D3557;strokeWidth=2;labelBackgroundColor=none;" parent="1" vertex="1">
          <mxGeometry x="1893.81" y="1792" width="160" height="80" as="geometry" />
        </mxCell>
        <mxCell id="pvfYnb17vEtcrrkuYDLX-121" value="" style="edgeStyle=orthogonalEdgeStyle;rounded=0;orthogonalLoop=1;jettySize=auto;html=1;strokeColor=#457B9D;fontColor=#1D3557;fillColor=#A8DADC;exitX=0.915;exitY=0.473;exitDx=0;exitDy=0;exitPerimeter=0;entryX=0.5;entryY=0;entryDx=0;entryDy=0;" parent="1" target="pvfYnb17vEtcrrkuYDLX-126" edge="1">
          <mxGeometry relative="1" as="geometry">
            <mxPoint x="2053.81" y="1830" as="sourcePoint" />
            <Array as="points">
              <mxPoint x="2054" y="1832" />
              <mxPoint x="2143" y="1832" />
              <mxPoint x="2143" y="1897" />
            </Array>
            <mxPoint x="2142.81" y="1852" as="targetPoint" />
          </mxGeometry>
        </mxCell>
        <mxCell id="pvfYnb17vEtcrrkuYDLX-122" value="" style="edgeStyle=orthogonalEdgeStyle;rounded=0;orthogonalLoop=1;jettySize=auto;html=1;strokeColor=#457B9D;fontColor=#1D3557;fillColor=#A8DADC;" parent="1" edge="1">
          <mxGeometry relative="1" as="geometry">
            <mxPoint x="1893.81" y="1832" as="sourcePoint" />
            <mxPoint x="1723.81" y="1892" as="targetPoint" />
          </mxGeometry>
        </mxCell>
        <mxCell id="pvfYnb17vEtcrrkuYDLX-123" value="True" style="text;html=1;align=center;verticalAlign=middle;resizable=0;points=[];autosize=1;strokeColor=none;fillColor=none;fontColor=#1D3557;" parent="1" vertex="1">
          <mxGeometry x="2074" y="1802" width="50" height="30" as="geometry" />
        </mxCell>
        <mxCell id="pvfYnb17vEtcrrkuYDLX-124" value="False" style="text;html=1;align=center;verticalAlign=middle;resizable=0;points=[];autosize=1;strokeColor=none;fillColor=none;fontColor=#1D3557;" parent="1" vertex="1">
          <mxGeometry x="1790.81" y="1802" width="50" height="30" as="geometry" />
        </mxCell>
        <mxCell id="pvfYnb17vEtcrrkuYDLX-125" style="edgeStyle=orthogonalEdgeStyle;rounded=0;orthogonalLoop=1;jettySize=auto;html=1;" parent="1" source="pvfYnb17vEtcrrkuYDLX-126" edge="1">
          <mxGeometry relative="1" as="geometry">
            <mxPoint x="3800" y="2530" as="targetPoint" />
            <Array as="points">
              <mxPoint x="2143" y="2500" />
              <mxPoint x="2143" y="2500" />
            </Array>
          </mxGeometry>
        </mxCell>
        <mxCell id="pvfYnb17vEtcrrkuYDLX-126" value="Output = &quot;Logout berhasil&lt;span style=&quot;background-color: initial;&quot;&gt;&amp;nbsp;&quot;&lt;/span&gt;" style="shape=parallelogram;perimeter=parallelogramPerimeter;whiteSpace=wrap;html=1;fixedSize=1;fillColor=#A8DADC;strokeColor=#457B9D;fontColor=#1D3557;strokeWidth=2;labelBackgroundColor=none;align=center;" parent="1" vertex="1">
          <mxGeometry x="2078" y="1895" width="130" height="68" as="geometry" />
        </mxCell>
        <mxCell id="pvfYnb17vEtcrrkuYDLX-127" value="" style="edgeStyle=orthogonalEdgeStyle;rounded=0;orthogonalLoop=1;jettySize=auto;html=1;strokeColor=#457B9D;fontColor=#1D3557;fillColor=#A8DADC;" parent="1" edge="1">
          <mxGeometry relative="1" as="geometry">
            <mxPoint x="1973" y="1761" as="sourcePoint" />
            <mxPoint x="1973" y="1791" as="targetPoint" />
          </mxGeometry>
        </mxCell>
        <mxCell id="pvfYnb17vEtcrrkuYDLX-128" style="rounded=0;orthogonalLoop=1;jettySize=auto;html=1;edgeStyle=orthogonalEdgeStyle;" parent="1" edge="1">
          <mxGeometry relative="1" as="geometry">
            <mxPoint x="2140" y="2230" as="targetPoint" />
            <mxPoint x="1722.8571428571431" y="1962" as="sourcePoint" />
            <Array as="points">
              <mxPoint x="1723" y="2230" />
            </Array>
          </mxGeometry>
        </mxCell>
        <mxCell id="pvfYnb17vEtcrrkuYDLX-129" style="edgeStyle=orthogonalEdgeStyle;rounded=0;orthogonalLoop=1;jettySize=auto;html=1;" parent="1" source="pvfYnb17vEtcrrkuYDLX-130" edge="1">
          <mxGeometry relative="1" as="geometry">
            <mxPoint x="2880" y="1060" as="targetPoint" />
            <Array as="points">
              <mxPoint x="1540" y="1928" />
              <mxPoint x="1540" y="1060" />
            </Array>
          </mxGeometry>
        </mxCell>
        <mxCell id="pvfYnb17vEtcrrkuYDLX-130" value="Output = &quot;Pilihan&amp;nbsp;&lt;div&gt;&lt;span style=&quot;background-color: initial;&quot;&gt;tidak valid. &quot;&lt;/span&gt;&lt;/div&gt;" style="shape=parallelogram;perimeter=parallelogramPerimeter;whiteSpace=wrap;html=1;fixedSize=1;fillColor=#A8DADC;strokeColor=#457B9D;fontColor=#1D3557;strokeWidth=2;labelBackgroundColor=none;align=center;" parent="1" vertex="1">
          <mxGeometry x="1660.81" y="1894" width="130" height="68" as="geometry" />
        </mxCell>
        <mxCell id="pvfYnb17vEtcrrkuYDLX-131" value="&lt;font face=&quot;Verdana&quot;&gt;&amp;nbsp; &amp;nbsp;Output =&amp;nbsp;&lt;/font&gt;&lt;div&gt;&lt;font face=&quot;Gwa8SxlCsdu1uKtJ1fb-&quot;&gt;&quot; Sistem Pengguna&lt;/font&gt;&lt;/div&gt;&lt;div&gt;&lt;span style=&quot;background-color: initial; font-family: Gwa8SxlCsdu1uKtJ1fb-;&quot;&gt;1. Lihat Film&lt;/span&gt;&lt;/div&gt;&lt;div&gt;&lt;span style=&quot;background-color: initial; font-family: Gwa8SxlCsdu1uKtJ1fb-;&quot;&gt;2.Beli Tiket&lt;/span&gt;&lt;/div&gt;&lt;div&gt;&lt;span style=&quot;background-color: initial; font-family: Gwa8SxlCsdu1uKtJ1fb-;&quot;&gt;3. Lihat Registrasi&lt;/span&gt;&lt;/div&gt;&lt;div&gt;&lt;span style=&quot;background-color: initial; font-family: Gwa8SxlCsdu1uKtJ1fb-;&quot;&gt;4. Log Out&quot;&lt;/span&gt;&lt;/div&gt;" style="shape=parallelogram;perimeter=parallelogramPerimeter;whiteSpace=wrap;html=1;fixedSize=1;fillColor=#A8DADC;strokeColor=#457B9D;fontColor=#1D3557;strokeWidth=2;labelBackgroundColor=none;align=center;" parent="1" vertex="1">
          <mxGeometry x="4291" y="410" width="180" height="102" as="geometry" />
        </mxCell>
        <mxCell id="pvfYnb17vEtcrrkuYDLX-132" value="if == 1" style="rhombus;whiteSpace=wrap;html=1;fillColor=#A8DADC;strokeColor=#457B9D;fontColor=#1D3557;strokeWidth=2;labelBackgroundColor=none;" parent="1" vertex="1">
          <mxGeometry x="4301" y="550" width="160" height="80" as="geometry" />
        </mxCell>
        <mxCell id="pvfYnb17vEtcrrkuYDLX-133" value="" style="edgeStyle=orthogonalEdgeStyle;rounded=0;orthogonalLoop=1;jettySize=auto;html=1;strokeColor=#457B9D;fontColor=#1D3557;fillColor=#A8DADC;exitX=0.915;exitY=0.473;exitDx=0;exitDy=0;exitPerimeter=0;entryX=0.5;entryY=0;entryDx=0;entryDy=0;" parent="1" target="pvfYnb17vEtcrrkuYDLX-138" edge="1">
          <mxGeometry relative="1" as="geometry">
            <mxPoint x="4461" y="588" as="sourcePoint" />
            <Array as="points">
              <mxPoint x="4461" y="590" />
              <mxPoint x="4551" y="590" />
              <mxPoint x="4551" y="655" />
            </Array>
            <mxPoint x="4550" y="610" as="targetPoint" />
          </mxGeometry>
        </mxCell>
        <mxCell id="pvfYnb17vEtcrrkuYDLX-134" value="" style="edgeStyle=orthogonalEdgeStyle;rounded=0;orthogonalLoop=1;jettySize=auto;html=1;strokeColor=#457B9D;fontColor=#1D3557;fillColor=#A8DADC;" parent="1" edge="1">
          <mxGeometry relative="1" as="geometry">
            <mxPoint x="4301" y="590" as="sourcePoint" />
            <mxPoint x="4171" y="650" as="targetPoint" />
          </mxGeometry>
        </mxCell>
        <mxCell id="pvfYnb17vEtcrrkuYDLX-135" value="True" style="text;html=1;align=center;verticalAlign=middle;resizable=0;points=[];autosize=1;strokeColor=none;fillColor=none;fontColor=#1D3557;" parent="1" vertex="1">
          <mxGeometry x="4481.1900000000005" y="560" width="50" height="30" as="geometry" />
        </mxCell>
        <mxCell id="pvfYnb17vEtcrrkuYDLX-136" value="False" style="text;html=1;align=center;verticalAlign=middle;resizable=0;points=[];autosize=1;strokeColor=none;fillColor=none;fontColor=#1D3557;" parent="1" vertex="1">
          <mxGeometry x="4219" y="560" width="50" height="30" as="geometry" />
        </mxCell>
        <mxCell id="pvfYnb17vEtcrrkuYDLX-137" style="edgeStyle=orthogonalEdgeStyle;rounded=0;orthogonalLoop=1;jettySize=auto;html=1;entryX=1;entryY=0.75;entryDx=0;entryDy=0;" parent="1" source="pvfYnb17vEtcrrkuYDLX-138" target="pvfYnb17vEtcrrkuYDLX-131" edge="1">
          <mxGeometry relative="1" as="geometry">
            <mxPoint x="4720.000000000001" y="480" as="targetPoint" />
            <Array as="points">
              <mxPoint x="4680" y="935" />
              <mxPoint x="4680" y="482" />
            </Array>
          </mxGeometry>
        </mxCell>
        <mxCell id="pvfYnb17vEtcrrkuYDLX-138" value="&lt;div&gt;&lt;br&gt;&lt;/div&gt;Output = (f&quot;ID:&amp;nbsp;&lt;div&gt;{id_film}, Judul:&amp;nbsp;&lt;/div&gt;&lt;div&gt;{movie[&#39;judul&#39;]},&lt;/div&gt;&lt;div&gt;Sisa Tiket: {movie[&lt;/div&gt;&lt;div&gt;&#39;sisa_tiket&#39;]}, Harga&lt;/div&gt;&lt;div&gt;Tiket: {movie&lt;/div&gt;&lt;div&gt;[&#39;harga_tiket&#39;]}&quot;)&amp;nbsp;&lt;/div&gt;&lt;div&gt;&amp;nbsp;&lt;/div&gt;" style="shape=parallelogram;perimeter=parallelogramPerimeter;whiteSpace=wrap;html=1;fixedSize=1;fillColor=#A8DADC;strokeColor=#457B9D;fontColor=#1D3557;strokeWidth=2;labelBackgroundColor=none;align=center;" parent="1" vertex="1">
          <mxGeometry x="4478.19" y="887" width="144.81" height="113" as="geometry" />
        </mxCell>
        <mxCell id="pvfYnb17vEtcrrkuYDLX-139" value="if == 2" style="rhombus;whiteSpace=wrap;html=1;fillColor=#A8DADC;strokeColor=#457B9D;fontColor=#1D3557;strokeWidth=2;labelBackgroundColor=none;" parent="1" vertex="1">
          <mxGeometry x="4092" y="651" width="160" height="80" as="geometry" />
        </mxCell>
        <mxCell id="pvfYnb17vEtcrrkuYDLX-140" value="" style="edgeStyle=orthogonalEdgeStyle;rounded=0;orthogonalLoop=1;jettySize=auto;html=1;strokeColor=#457B9D;fontColor=#1D3557;fillColor=#A8DADC;exitX=0.915;exitY=0.473;exitDx=0;exitDy=0;exitPerimeter=0;" parent="1" edge="1">
          <mxGeometry relative="1" as="geometry">
            <mxPoint x="4252" y="689" as="sourcePoint" />
            <Array as="points">
              <mxPoint x="4252" y="691" />
              <mxPoint x="4341" y="691" />
              <mxPoint x="4341" y="771" />
            </Array>
            <mxPoint x="4341" y="771" as="targetPoint" />
          </mxGeometry>
        </mxCell>
        <mxCell id="pvfYnb17vEtcrrkuYDLX-141" value="" style="edgeStyle=orthogonalEdgeStyle;rounded=0;orthogonalLoop=1;jettySize=auto;html=1;strokeColor=#457B9D;fontColor=#1D3557;fillColor=#A8DADC;" parent="1" edge="1">
          <mxGeometry relative="1" as="geometry">
            <mxPoint x="4092" y="691" as="sourcePoint" />
            <mxPoint x="3971" y="740" as="targetPoint" />
          </mxGeometry>
        </mxCell>
        <mxCell id="pvfYnb17vEtcrrkuYDLX-142" value="True" style="text;html=1;align=center;verticalAlign=middle;resizable=0;points=[];autosize=1;strokeColor=none;fillColor=none;fontColor=#1D3557;" parent="1" vertex="1">
          <mxGeometry x="4272.1900000000005" y="661" width="50" height="30" as="geometry" />
        </mxCell>
        <mxCell id="pvfYnb17vEtcrrkuYDLX-143" value="False" style="text;html=1;align=center;verticalAlign=middle;resizable=0;points=[];autosize=1;strokeColor=none;fillColor=none;fontColor=#1D3557;" parent="1" vertex="1">
          <mxGeometry x="4009" y="661" width="50" height="30" as="geometry" />
        </mxCell>
        <mxCell id="pvfYnb17vEtcrrkuYDLX-144" value="Output = &quot; Masukan&amp;nbsp;&lt;div&gt;&lt;span style=&quot;background-color: initial;&quot;&gt;ID film yang ingin&lt;/span&gt;&lt;/div&gt;&lt;div&gt;&lt;span style=&quot;background-color: initial;&quot;&gt;dibeli &quot;&lt;/span&gt;&lt;/div&gt;" style="shape=parallelogram;perimeter=parallelogramPerimeter;whiteSpace=wrap;html=1;fixedSize=1;fillColor=#A8DADC;strokeColor=#457B9D;fontColor=#1D3557;strokeWidth=2;labelBackgroundColor=none;align=center;" parent="1" vertex="1">
          <mxGeometry x="4266" y="1015" width="145.19" height="65" as="geometry" />
        </mxCell>
        <mxCell id="pvfYnb17vEtcrrkuYDLX-145" value="Input =&lt;div&gt;judul_film&lt;/div&gt;" style="shape=parallelogram;perimeter=parallelogramPerimeter;whiteSpace=wrap;html=1;fixedSize=1;fillColor=#A8DADC;strokeColor=#457B9D;fontColor=#1D3557;strokeWidth=2;labelBackgroundColor=none;" parent="1" vertex="1">
          <mxGeometry x="4257" y="1111.08" width="145.19" height="65" as="geometry" />
        </mxCell>
        <mxCell id="pvfYnb17vEtcrrkuYDLX-146" value="" style="endArrow=classic;html=1;rounded=0;" parent="1" edge="1">
          <mxGeometry width="50" height="50" relative="1" as="geometry">
            <mxPoint x="4338.1900000000005" y="1177.06" as="sourcePoint" />
            <mxPoint x="4338.1900000000005" y="1207.06" as="targetPoint" />
          </mxGeometry>
        </mxCell>
        <mxCell id="pvfYnb17vEtcrrkuYDLX-147" value="" style="endArrow=classic;html=1;rounded=0;" parent="1" edge="1">
          <mxGeometry width="50" height="50" relative="1" as="geometry">
            <mxPoint x="4341.1900000000005" y="1080.06" as="sourcePoint" />
            <mxPoint x="4341.1900000000005" y="1110.06" as="targetPoint" />
          </mxGeometry>
        </mxCell>
        <mxCell id="pvfYnb17vEtcrrkuYDLX-148" value="Output = &quot; Masukan&amp;nbsp;&lt;div&gt;&lt;span style=&quot;background-color: initial;&quot;&gt;jumlah tiket&amp;nbsp; yang&lt;/span&gt;&lt;/div&gt;&lt;div&gt;&lt;span style=&quot;background-color: initial;&quot;&gt;ingin dibeli&quot;&lt;/span&gt;&lt;/div&gt;" style="shape=parallelogram;perimeter=parallelogramPerimeter;whiteSpace=wrap;html=1;fixedSize=1;fillColor=#A8DADC;strokeColor=#457B9D;fontColor=#1D3557;strokeWidth=2;labelBackgroundColor=none;align=center;" parent="1" vertex="1">
          <mxGeometry x="4259" y="1206.94" width="145.19" height="65" as="geometry" />
        </mxCell>
        <mxCell id="pvfYnb17vEtcrrkuYDLX-149" value="Input =&lt;div&gt;jumlah_tiket&lt;/div&gt;" style="shape=parallelogram;perimeter=parallelogramPerimeter;whiteSpace=wrap;html=1;fixedSize=1;fillColor=#A8DADC;strokeColor=#457B9D;fontColor=#1D3557;strokeWidth=2;labelBackgroundColor=none;" parent="1" vertex="1">
          <mxGeometry x="4250" y="1304.02" width="145.19" height="65" as="geometry" />
        </mxCell>
        <mxCell id="pvfYnb17vEtcrrkuYDLX-150" value="" style="endArrow=classic;html=1;rounded=0;" parent="1" edge="1">
          <mxGeometry width="50" height="50" relative="1" as="geometry">
            <mxPoint x="4333.1900000000005" y="1370" as="sourcePoint" />
            <mxPoint x="4333.1900000000005" y="1400" as="targetPoint" />
          </mxGeometry>
        </mxCell>
        <mxCell id="pvfYnb17vEtcrrkuYDLX-151" value="" style="endArrow=classic;html=1;rounded=0;" parent="1" edge="1">
          <mxGeometry width="50" height="50" relative="1" as="geometry">
            <mxPoint x="4336.1900000000005" y="1273" as="sourcePoint" />
            <mxPoint x="4336.1900000000005" y="1303" as="targetPoint" />
          </mxGeometry>
        </mxCell>
        <mxCell id="pvfYnb17vEtcrrkuYDLX-152" value="total_harga =&lt;div&gt;jumlah_tiket*movie[3]&lt;/div&gt;" style="whiteSpace=wrap;html=1;fillColor=#A8DADC;strokeColor=#457B9D;fontColor=#1D3557;strokeWidth=2;labelBackgroundColor=none;" parent="1" vertex="1">
          <mxGeometry x="4265.09" y="1402" width="125" height="60" as="geometry" />
        </mxCell>
        <mxCell id="pvfYnb17vEtcrrkuYDLX-153" value="&lt;font face=&quot;Verdana&quot;&gt;&lt;font style=&quot;vertical-align: inherit;&quot;&gt;&lt;font style=&quot;vertical-align: inherit;&quot;&gt;&amp;nbsp; &amp;nbsp;Keluaran =&amp;nbsp;&lt;/font&gt;&lt;/font&gt;&lt;/font&gt;&lt;div&gt;&lt;font face=&quot;Gwa8SxlCsdu1uKtJ1fb-&quot;&gt;&lt;font style=&quot;vertical-align: inherit;&quot;&gt;&lt;font style=&quot;vertical-align: inherit;&quot;&gt;&quot;0,1/2/3&quot;&lt;/font&gt;&lt;/font&gt;&lt;/font&gt;&lt;/div&gt;&lt;div&gt;&lt;font face=&quot;Gwa8SxlCsdu1uKtJ1fb-&quot;&gt;&lt;font style=&quot;vertical-align: inherit;&quot;&gt;&lt;font style=&quot;vertical-align: inherit;&quot;&gt;1. Avengers : Endgame&lt;/font&gt;&lt;/font&gt;&lt;/font&gt;&lt;span style=&quot;font-family: Gwa8SxlCsdu1uKtJ1fb-; background-color: initial;&quot;&gt;&lt;font style=&quot;vertical-align: inherit;&quot;&gt;&lt;font style=&quot;vertical-align: inherit;&quot;&gt;/&lt;/font&gt;&lt;/font&gt;&lt;/span&gt;&lt;/div&gt;&lt;div&gt;&lt;font face=&quot;Gwa8SxlCsdu1uKtJ1fb-&quot;&gt;&lt;font style=&quot;vertical-align: inherit;&quot;&gt;&lt;font style=&quot;vertical-align: inherit;&quot;&gt;Joker/&lt;/font&gt;&lt;/font&gt;&lt;/font&gt;&lt;/div&gt;&lt;div&gt;&lt;font face=&quot;Gwa8SxlCsdu1uKtJ1fb-&quot;&gt;&lt;font style=&quot;vertical-align: inherit;&quot;&gt;&lt;font style=&quot;vertical-align: inherit;&quot;&gt;Spiderman: No Way Home&lt;/font&gt;&lt;/font&gt;&lt;/font&gt;&lt;/div&gt;&lt;div&gt;&lt;font face=&quot;Gwa8SxlCsdu1uKtJ1fb-&quot;&gt;&lt;font style=&quot;vertical-align: inherit;&quot;&gt;&lt;font style=&quot;vertical-align: inherit;&quot;&gt;2. 100/80/50&lt;/font&gt;&lt;/font&gt;&lt;/font&gt;&lt;/div&gt;&lt;div&gt;&lt;font face=&quot;Gwa8SxlCsdu1uKtJ1fb-&quot;&gt;&lt;font style=&quot;vertical-align: inherit;&quot;&gt;&lt;font style=&quot;vertical-align: inherit;&quot;&gt;3. 50000/45000/55000&lt;/font&gt;&lt;/font&gt;&lt;/font&gt;&lt;/div&gt;" style="shape=parallelogram;perimeter=parallelogramPerimeter;whiteSpace=wrap;html=1;fixedSize=1;fillColor=#A8DADC;strokeColor=#457B9D;fontColor=#1D3557;strokeWidth=2;labelBackgroundColor=none;align=center;" parent="1" vertex="1">
          <mxGeometry x="4460.1900000000005" y="658" width="180" height="112" as="geometry" />
        </mxCell>
        <mxCell id="pvfYnb17vEtcrrkuYDLX-154" value="Input =&lt;div&gt;movie(0,1,2,3)&lt;/div&gt;" style="shape=parallelogram;perimeter=parallelogramPerimeter;whiteSpace=wrap;html=1;fixedSize=1;fillColor=#A8DADC;strokeColor=#457B9D;fontColor=#1D3557;strokeWidth=2;labelBackgroundColor=none;" parent="1" vertex="1">
          <mxGeometry x="4478.1900000000005" y="793" width="145.19" height="65" as="geometry" />
        </mxCell>
        <mxCell id="pvfYnb17vEtcrrkuYDLX-155" value="&lt;font face=&quot;Verdana&quot;&gt;&amp;nbsp; &amp;nbsp;Output =&amp;nbsp;&lt;/font&gt;&lt;div&gt;&lt;div&gt;&lt;font face=&quot;Gwa8SxlCsdu1uKtJ1fb-&quot;&gt;&quot;0,1/2/3&quot;&lt;/font&gt;&lt;/div&gt;&lt;div&gt;&lt;font face=&quot;Gwa8SxlCsdu1uKtJ1fb-&quot;&gt;1. Avengers : Endgame&lt;/font&gt;&lt;span style=&quot;font-family: Gwa8SxlCsdu1uKtJ1fb-; background-color: initial;&quot;&gt;/&lt;/span&gt;&lt;/div&gt;&lt;div&gt;&lt;font face=&quot;Gwa8SxlCsdu1uKtJ1fb-&quot;&gt;Joker/&lt;/font&gt;&lt;/div&gt;&lt;div&gt;&lt;font face=&quot;Gwa8SxlCsdu1uKtJ1fb-&quot;&gt;Spiderman: No Way Home&lt;/font&gt;&lt;/div&gt;&lt;div&gt;&lt;font face=&quot;Gwa8SxlCsdu1uKtJ1fb-&quot;&gt;2. 100/80/50&lt;/font&gt;&lt;/div&gt;&lt;div&gt;&lt;font face=&quot;Gwa8SxlCsdu1uKtJ1fb-&quot;&gt;3. 50000/45000/55000&lt;/font&gt;&lt;/div&gt;&lt;/div&gt;" style="shape=parallelogram;perimeter=parallelogramPerimeter;whiteSpace=wrap;html=1;fixedSize=1;fillColor=#A8DADC;strokeColor=#457B9D;fontColor=#1D3557;strokeWidth=2;labelBackgroundColor=none;align=center;" parent="1" vertex="1">
          <mxGeometry x="4248" y="772.5" width="180" height="112" as="geometry" />
        </mxCell>
        <mxCell id="pvfYnb17vEtcrrkuYDLX-156" value="Input =&lt;div&gt;movie(0,1,2,3)&lt;/div&gt;" style="shape=parallelogram;perimeter=parallelogramPerimeter;whiteSpace=wrap;html=1;fixedSize=1;fillColor=#A8DADC;strokeColor=#457B9D;fontColor=#1D3557;strokeWidth=2;labelBackgroundColor=none;" parent="1" vertex="1">
          <mxGeometry x="4259" y="917" width="145.19" height="65" as="geometry" />
        </mxCell>
        <mxCell id="pvfYnb17vEtcrrkuYDLX-157" value="" style="endArrow=classic;html=1;rounded=0;" parent="1" edge="1">
          <mxGeometry width="50" height="50" relative="1" as="geometry">
            <mxPoint x="4341.1900000000005" y="983.06" as="sourcePoint" />
            <mxPoint x="4341.1900000000005" y="1013.06" as="targetPoint" />
          </mxGeometry>
        </mxCell>
        <mxCell id="pvfYnb17vEtcrrkuYDLX-158" value="" style="endArrow=classic;html=1;rounded=0;" parent="1" edge="1">
          <mxGeometry width="50" height="50" relative="1" as="geometry">
            <mxPoint x="4341.1900000000005" y="886.06" as="sourcePoint" />
            <mxPoint x="4341.1900000000005" y="916.06" as="targetPoint" />
          </mxGeometry>
        </mxCell>
        <mxCell id="pvfYnb17vEtcrrkuYDLX-159" style="edgeStyle=orthogonalEdgeStyle;rounded=0;orthogonalLoop=1;jettySize=auto;html=1;entryX=1;entryY=0.5;entryDx=0;entryDy=0;" parent="1" source="pvfYnb17vEtcrrkuYDLX-160" target="pvfYnb17vEtcrrkuYDLX-131" edge="1">
          <mxGeometry relative="1" as="geometry">
            <mxPoint x="4620" y="1160" as="targetPoint" />
            <Array as="points">
              <mxPoint x="4800" y="1640" />
              <mxPoint x="4800" y="461" />
            </Array>
          </mxGeometry>
        </mxCell>
        <mxCell id="pvfYnb17vEtcrrkuYDLX-160" value="Output = &quot;Pembelian&lt;div&gt;&lt;span style=&quot;background-color: initial;&quot;&gt;{jumlah_tiket} tiket&amp;nbsp;&lt;/span&gt;&lt;/div&gt;&lt;div&gt;&lt;span style=&quot;background-color: initial;&quot;&gt;untuk film {movie[&#39;judul&#39;]}&lt;/span&gt;&lt;/div&gt;&lt;div&gt;&lt;span style=&quot;background-color: initial;&quot;&gt;berhasil. Total harga:&lt;/span&gt;&lt;/div&gt;&lt;div&gt;&lt;span style=&quot;background-color: initial;&quot;&gt;Rp{total_harga}&quot;&lt;/span&gt;&lt;/div&gt;" style="shape=parallelogram;perimeter=parallelogramPerimeter;whiteSpace=wrap;html=1;fixedSize=1;fillColor=#A8DADC;strokeColor=#457B9D;fontColor=#1D3557;strokeWidth=2;labelBackgroundColor=none;align=center;" parent="1" vertex="1">
          <mxGeometry x="4230" y="1592" width="163.19" height="96" as="geometry" />
        </mxCell>
        <mxCell id="pvfYnb17vEtcrrkuYDLX-161" value="" style="endArrow=classic;html=1;rounded=0;" parent="1" edge="1">
          <mxGeometry width="50" height="50" relative="1" as="geometry">
            <mxPoint x="4333.1900000000005" y="1463" as="sourcePoint" />
            <mxPoint x="4333.1900000000005" y="1493" as="targetPoint" />
          </mxGeometry>
        </mxCell>
        <mxCell id="pvfYnb17vEtcrrkuYDLX-162" value="Input =&lt;div&gt;jumlah_tiket&lt;/div&gt;" style="shape=parallelogram;perimeter=parallelogramPerimeter;whiteSpace=wrap;html=1;fixedSize=1;fillColor=#A8DADC;strokeColor=#457B9D;fontColor=#1D3557;strokeWidth=2;labelBackgroundColor=none;" parent="1" vertex="1">
          <mxGeometry x="4250" y="1494" width="145.19" height="65" as="geometry" />
        </mxCell>
        <mxCell id="pvfYnb17vEtcrrkuYDLX-163" value="" style="endArrow=classic;html=1;rounded=0;" parent="1" edge="1">
          <mxGeometry width="50" height="50" relative="1" as="geometry">
            <mxPoint x="4333.1900000000005" y="1560" as="sourcePoint" />
            <mxPoint x="4333.1900000000005" y="1590" as="targetPoint" />
          </mxGeometry>
        </mxCell>
        <mxCell id="pvfYnb17vEtcrrkuYDLX-164" style="edgeStyle=orthogonalEdgeStyle;rounded=0;orthogonalLoop=1;jettySize=auto;html=1;entryX=0.5;entryY=0;entryDx=0;entryDy=0;" parent="1" source="pvfYnb17vEtcrrkuYDLX-165" target="pvfYnb17vEtcrrkuYDLX-166" edge="1">
          <mxGeometry relative="1" as="geometry" />
        </mxCell>
        <mxCell id="pvfYnb17vEtcrrkuYDLX-165" value="Output = &quot; Tiket tidak&amp;nbsp;&lt;div&gt;&lt;span style=&quot;background-color: initial;&quot;&gt;cukup tersedia/ID film&lt;/span&gt;&lt;/div&gt;&lt;div&gt;&lt;span style=&quot;background-color: initial;&quot;&gt;tidak ditemukan &quot;&lt;/span&gt;&lt;/div&gt;" style="shape=parallelogram;perimeter=parallelogramPerimeter;whiteSpace=wrap;html=1;fixedSize=1;fillColor=#A8DADC;strokeColor=#457B9D;fontColor=#1D3557;strokeWidth=2;labelBackgroundColor=none;align=center;" parent="1" vertex="1">
          <mxGeometry x="3894" y="741.5" width="145.19" height="65" as="geometry" />
        </mxCell>
        <mxCell id="pvfYnb17vEtcrrkuYDLX-166" value="if == 3" style="rhombus;whiteSpace=wrap;html=1;fillColor=#A8DADC;strokeColor=#457B9D;fontColor=#1D3557;strokeWidth=2;labelBackgroundColor=none;" parent="1" vertex="1">
          <mxGeometry x="3764" y="1031" width="160" height="80" as="geometry" />
        </mxCell>
        <mxCell id="pvfYnb17vEtcrrkuYDLX-167" value="" style="edgeStyle=orthogonalEdgeStyle;rounded=0;orthogonalLoop=1;jettySize=auto;html=1;strokeColor=#457B9D;fontColor=#1D3557;fillColor=#A8DADC;exitX=0.915;exitY=0.473;exitDx=0;exitDy=0;exitPerimeter=0;entryX=0.43;entryY=0.947;entryDx=0;entryDy=0;entryPerimeter=0;" parent="1" target="pvfYnb17vEtcrrkuYDLX-172" edge="1">
          <mxGeometry relative="1" as="geometry">
            <mxPoint x="3926.67" y="1068.43" as="sourcePoint" />
            <Array as="points">
              <mxPoint x="4068" y="1068" />
              <mxPoint x="4068" y="1289" />
            </Array>
            <mxPoint x="4068" y="1370" as="targetPoint" />
          </mxGeometry>
        </mxCell>
        <mxCell id="pvfYnb17vEtcrrkuYDLX-168" value="" style="edgeStyle=orthogonalEdgeStyle;rounded=0;orthogonalLoop=1;jettySize=auto;html=1;strokeColor=#457B9D;fontColor=#1D3557;fillColor=#A8DADC;" parent="1" edge="1">
          <mxGeometry relative="1" as="geometry">
            <mxPoint x="3764" y="1071" as="sourcePoint" />
            <mxPoint x="3634" y="1131" as="targetPoint" />
          </mxGeometry>
        </mxCell>
        <mxCell id="pvfYnb17vEtcrrkuYDLX-169" value="True" style="text;html=1;align=center;verticalAlign=middle;resizable=0;points=[];autosize=1;strokeColor=none;fillColor=none;fontColor=#1D3557;" parent="1" vertex="1">
          <mxGeometry x="3995.1700000000005" y="1036.43" width="50" height="30" as="geometry" />
        </mxCell>
        <mxCell id="pvfYnb17vEtcrrkuYDLX-170" value="False" style="text;html=1;align=center;verticalAlign=middle;resizable=0;points=[];autosize=1;strokeColor=none;fillColor=none;fontColor=#1D3557;" parent="1" vertex="1">
          <mxGeometry x="3682" y="1041" width="50" height="30" as="geometry" />
        </mxCell>
        <mxCell id="pvfYnb17vEtcrrkuYDLX-171" style="edgeStyle=orthogonalEdgeStyle;rounded=0;orthogonalLoop=1;jettySize=auto;html=1;entryX=1;entryY=0.25;entryDx=0;entryDy=0;" parent="1" source="pvfYnb17vEtcrrkuYDLX-172" target="pvfYnb17vEtcrrkuYDLX-131" edge="1">
          <mxGeometry relative="1" as="geometry">
            <mxPoint x="4072" y="1780.6666259765625" as="targetPoint" />
            <Array as="points">
              <mxPoint x="4073" y="1781" />
              <mxPoint x="5020" y="1781" />
              <mxPoint x="5020" y="437" />
            </Array>
          </mxGeometry>
        </mxCell>
        <mxCell id="pvfYnb17vEtcrrkuYDLX-172" value="Output =&quot;(f&quot;{i}. Film: {transaction&lt;div&gt;&lt;span style=&quot;background-color: initial;&quot;&gt;[&#39;judul_film&#39;]}, Jumlah Tiket:&lt;/span&gt;&lt;/div&gt;&lt;div&gt;&lt;span style=&quot;background-color: initial;&quot;&gt;{transaction[&#39;jumlah_tiket&#39;]}, Total&lt;/span&gt;&lt;/div&gt;&lt;div&gt;&lt;span style=&quot;background-color: initial;&quot;&gt;Harga: Rp{transaction[&#39;total_harga&#39;]&lt;/span&gt;&lt;/div&gt;&lt;div&gt;&lt;span style=&quot;background-color: initial;&quot;&gt;}&quot;)&lt;/span&gt;&lt;/div&gt;" style="shape=parallelogram;perimeter=parallelogramPerimeter;whiteSpace=wrap;html=1;fixedSize=1;fillColor=#A8DADC;strokeColor=#457B9D;fontColor=#1D3557;strokeWidth=2;labelBackgroundColor=none;align=center;" parent="1" vertex="1">
          <mxGeometry x="3967" y="1202" width="223" height="92" as="geometry" />
        </mxCell>
        <mxCell id="pvfYnb17vEtcrrkuYDLX-173" value="if user_transactions" style="rhombus;whiteSpace=wrap;html=1;fillColor=#A8DADC;strokeColor=#457B9D;fontColor=#1D3557;strokeWidth=2;labelBackgroundColor=none;" parent="1" vertex="1">
          <mxGeometry x="3988" y="1092" width="160" height="80" as="geometry" />
        </mxCell>
        <mxCell id="pvfYnb17vEtcrrkuYDLX-174" value="if == 4" style="rhombus;whiteSpace=wrap;html=1;fillColor=#A8DADC;strokeColor=#457B9D;fontColor=#1D3557;strokeWidth=2;labelBackgroundColor=none;" parent="1" vertex="1">
          <mxGeometry x="3555" y="1134" width="160" height="80" as="geometry" />
        </mxCell>
        <mxCell id="pvfYnb17vEtcrrkuYDLX-175" value="" style="edgeStyle=orthogonalEdgeStyle;rounded=0;orthogonalLoop=1;jettySize=auto;html=1;strokeColor=#457B9D;fontColor=#1D3557;fillColor=#A8DADC;exitX=0.915;exitY=0.473;exitDx=0;exitDy=0;exitPerimeter=0;" parent="1" target="pvfYnb17vEtcrrkuYDLX-183" edge="1">
          <mxGeometry relative="1" as="geometry">
            <mxPoint x="3713" y="1172" as="sourcePoint" />
            <Array as="points">
              <mxPoint x="3713" y="1174" />
              <mxPoint x="3803" y="1174" />
            </Array>
            <mxPoint x="3803" y="1480" as="targetPoint" />
          </mxGeometry>
        </mxCell>
        <mxCell id="pvfYnb17vEtcrrkuYDLX-176" value="" style="edgeStyle=orthogonalEdgeStyle;rounded=0;orthogonalLoop=1;jettySize=auto;html=1;strokeColor=#457B9D;fontColor=#1D3557;fillColor=#A8DADC;" parent="1" edge="1">
          <mxGeometry relative="1" as="geometry">
            <mxPoint x="3555" y="1174" as="sourcePoint" />
            <mxPoint x="3425" y="1234" as="targetPoint" />
          </mxGeometry>
        </mxCell>
        <mxCell id="pvfYnb17vEtcrrkuYDLX-177" value="True" style="text;html=1;align=center;verticalAlign=middle;resizable=0;points=[];autosize=1;strokeColor=none;fillColor=none;fontColor=#1D3557;" parent="1" vertex="1">
          <mxGeometry x="3735.1900000000005" y="1144" width="50" height="30" as="geometry" />
        </mxCell>
        <mxCell id="pvfYnb17vEtcrrkuYDLX-178" value="False" style="text;html=1;align=center;verticalAlign=middle;resizable=0;points=[];autosize=1;strokeColor=none;fillColor=none;fontColor=#1D3557;" parent="1" vertex="1">
          <mxGeometry x="3476" y="1144" width="50" height="30" as="geometry" />
        </mxCell>
        <mxCell id="pvfYnb17vEtcrrkuYDLX-179" style="edgeStyle=orthogonalEdgeStyle;rounded=0;orthogonalLoop=1;jettySize=auto;html=1;exitX=0.5;exitY=1;exitDx=0;exitDy=0;entryX=0.05;entryY=0.784;entryDx=0;entryDy=0;entryPerimeter=0;" parent="1" source="pvfYnb17vEtcrrkuYDLX-180" target="pvfYnb17vEtcrrkuYDLX-131" edge="1">
          <mxGeometry relative="1" as="geometry">
            <mxPoint x="4283.076923076923" y="490" as="targetPoint" />
            <Array as="points">
              <mxPoint x="3421" y="1321" />
              <mxPoint x="3320" y="1321" />
              <mxPoint x="3320" y="490" />
            </Array>
          </mxGeometry>
        </mxCell>
        <mxCell id="pvfYnb17vEtcrrkuYDLX-180" value="Output = &quot; Pilihan&amp;nbsp;&lt;div&gt;&lt;span style=&quot;background-color: initial;&quot;&gt;tidak valid &quot;&lt;/span&gt;&lt;/div&gt;" style="shape=parallelogram;perimeter=parallelogramPerimeter;whiteSpace=wrap;html=1;fixedSize=1;fillColor=#A8DADC;strokeColor=#457B9D;fontColor=#1D3557;strokeWidth=2;labelBackgroundColor=none;align=center;" parent="1" vertex="1">
          <mxGeometry x="3348" y="1236" width="145.19" height="65" as="geometry" />
        </mxCell>
        <mxCell id="pvfYnb17vEtcrrkuYDLX-181" value="Input = Logout" style="shape=parallelogram;perimeter=parallelogramPerimeter;whiteSpace=wrap;html=1;fixedSize=1;fillColor=#A8DADC;strokeColor=#457B9D;fontColor=#1D3557;strokeWidth=2;labelBackgroundColor=none;align=center;" parent="1" vertex="1">
          <mxGeometry x="3731.19" y="1254" width="145.19" height="65" as="geometry" />
        </mxCell>
        <mxCell id="pvfYnb17vEtcrrkuYDLX-182" style="edgeStyle=orthogonalEdgeStyle;rounded=0;orthogonalLoop=1;jettySize=auto;html=1;" parent="1" edge="1">
          <mxGeometry relative="1" as="geometry">
            <mxPoint x="3799" y="2620" as="targetPoint" />
            <mxPoint x="3802.8" y="1428" as="sourcePoint" />
            <Array as="points">
              <mxPoint x="3803" y="1429" />
              <mxPoint x="3799" y="1429" />
              <mxPoint x="3799" y="2020" />
              <mxPoint x="3800" y="2020" />
            </Array>
          </mxGeometry>
        </mxCell>
        <mxCell id="pvfYnb17vEtcrrkuYDLX-183" value="Output = &quot; Logout&amp;nbsp;&lt;div&gt;&lt;span style=&quot;background-color: initial;&quot;&gt;berhasil&lt;/span&gt;&lt;span style=&quot;background-color: initial;&quot;&gt;&quot;&lt;/span&gt;&lt;/div&gt;" style="shape=parallelogram;perimeter=parallelogramPerimeter;whiteSpace=wrap;html=1;fixedSize=1;fillColor=#A8DADC;strokeColor=#457B9D;fontColor=#1D3557;strokeWidth=2;labelBackgroundColor=none;align=center;" parent="1" vertex="1">
          <mxGeometry x="3728.19" y="1359" width="145.19" height="69" as="geometry" />
        </mxCell>
        <mxCell id="pvfYnb17vEtcrrkuYDLX-184" style="edgeStyle=orthogonalEdgeStyle;rounded=0;orthogonalLoop=1;jettySize=auto;html=1;exitX=0.5;exitY=1;exitDx=0;exitDy=0;" parent="1" source="pvfYnb17vEtcrrkuYDLX-126" target="pvfYnb17vEtcrrkuYDLX-126" edge="1">
          <mxGeometry relative="1" as="geometry" />
        </mxCell>
        <mxCell id="pvfYnb17vEtcrrkuYDLX-185" value="&lt;font color=&quot;#000000&quot;&gt;End&lt;/font&gt;" style="strokeWidth=2;html=1;shape=mxgraph.flowchart.terminator;whiteSpace=wrap;align=center;fillColor=#A8DADC;strokeColor=#457B9D;fontStyle=1;labelBackgroundColor=none;fontColor=#1D3557;" parent="1" vertex="1">
          <mxGeometry x="3760.79" y="2623" width="80" height="30" as="geometry" />
        </mxCell>
        <mxCell id="pvfYnb17vEtcrrkuYDLX-186" value="" style="edgeStyle=orthogonalEdgeStyle;rounded=0;orthogonalLoop=1;jettySize=auto;html=1;strokeColor=#457B9D;fontColor=#1D3557;fillColor=#A8DADC;" parent="1" edge="1">
          <mxGeometry relative="1" as="geometry">
            <mxPoint x="1875.37" y="533" as="sourcePoint" />
            <mxPoint x="1970" y="610" as="targetPoint" />
          </mxGeometry>
        </mxCell>
        <mxCell id="pvfYnb17vEtcrrkuYDLX-187" value="" style="edgeStyle=orthogonalEdgeStyle;rounded=0;orthogonalLoop=1;jettySize=auto;html=1;strokeColor=#457B9D;fontColor=#1D3557;fillColor=#A8DADC;align=center;" parent="1" edge="1">
          <mxGeometry relative="1" as="geometry">
            <mxPoint x="1630" y="600" as="targetPoint" />
            <mxPoint x="1768" y="533" as="sourcePoint" />
          </mxGeometry>
        </mxCell>
        <mxCell id="pvfYnb17vEtcrrkuYDLX-188" value="True" style="text;html=1;align=center;verticalAlign=middle;resizable=0;points=[];autosize=1;strokeColor=none;fillColor=none;fontColor=#1D3557;" parent="1" vertex="1">
          <mxGeometry x="1900" y="503" width="50" height="30" as="geometry" />
        </mxCell>
        <mxCell id="pvfYnb17vEtcrrkuYDLX-189" value="False" style="text;html=1;align=center;verticalAlign=middle;resizable=0;points=[];autosize=1;strokeColor=none;fillColor=none;fontColor=#1D3557;" parent="1" vertex="1">
          <mxGeometry x="1680" y="503" width="50" height="30" as="geometry" />
        </mxCell>
        <mxCell id="pvfYnb17vEtcrrkuYDLX-190" style="edgeStyle=orthogonalEdgeStyle;rounded=0;orthogonalLoop=1;jettySize=auto;html=1;exitX=1;exitY=0.5;exitDx=0;exitDy=0;entryX=0.052;entryY=0.416;entryDx=0;entryDy=0;entryPerimeter=0;" parent="1" source="pvfYnb17vEtcrrkuYDLX-119" target="pvfYnb17vEtcrrkuYDLX-131" edge="1">
          <mxGeometry relative="1" as="geometry">
            <Array as="points">
              <mxPoint x="4300" y="445" />
            </Array>
          </mxGeometry>
        </mxCell>
        <mxCell id="pvfYnb17vEtcrrkuYDLX-191" value="Output &quot;Anda berhasil&lt;div&gt;&lt;span style=&quot;background-color: initial;&quot;&gt;keluar dari aplikasi&quot;&lt;/span&gt;&lt;/div&gt;" style="shape=parallelogram;perimeter=parallelogramPerimeter;whiteSpace=wrap;html=1;fixedSize=1;fillColor=#A8DADC;strokeColor=#457B9D;fontColor=#1D3557;strokeWidth=2;labelBackgroundColor=none;" parent="1" vertex="1">
          <mxGeometry x="1887.43" y="610" width="167.5" height="75" as="geometry" />
        </mxCell>
        <mxCell id="pvfYnb17vEtcrrkuYDLX-192" value="" style="verticalLabelPosition=bottom;verticalAlign=top;html=1;shape=mxgraph.basic.polygon;polyCoords=[[0.25,0],[0.75,0],[1,0.25],[1,0.75],[0.75,1],[0.25,1],[0,0.75],[0,0.25]];polyline=0;fillColor=#FF8000;" parent="1" vertex="1">
          <mxGeometry x="2127" y="1986" width="35" height="35" as="geometry" />
        </mxCell>
        <mxCell id="pvfYnb17vEtcrrkuYDLX-193" value="Break" style="text;html=1;align=center;verticalAlign=middle;whiteSpace=wrap;rounded=0;" parent="1" vertex="1">
          <mxGeometry x="2162" y="1988.5" width="60" height="30" as="geometry" />
        </mxCell>
      </root>
    </mxGraphModel>
  </diagram>
</mxfile>
